<svg width="50" height="50" viewBox="0 0 50 50" fill="none" xmlns="http://www.w3.org/2000/svg">
<rect width="50" height="50" rx="25" fill="#EFF0F2"/>
<path d="M25.75 14.35H17.5C16.8635 14.35 16.253 14.6029 15.8029 15.0529C15.3529 15.503 15.1 16.1135 15.1 16.75V33.25C15.1 33.8865 15.3529 34.497 15.8029 34.9471C16.253 35.3971 16.8635 35.65 17.5 35.65H32.5C33.1365 35.65 33.747 35.3971 34.1971 34.9471C34.6471 34.497 34.9 33.8865 34.9 33.25V25C34.9 24.3635 34.6471 23.753 34.1971 23.3029C33.747 22.8529 33.1365 22.6 32.5 22.6H28.15V16.75C28.15 16.1135 27.8971 15.503 27.4471 15.0529C26.997 14.6029 26.3865 14.35 25.75 14.35ZM16.15 33.25V16.75C16.15 16.392 16.2922 16.0486 16.5454 15.7954C16.7986 15.5422 17.142 15.4 17.5 15.4H25.75C26.108 15.4 26.4514 15.5422 26.7046 15.7954C26.9578 16.0486 27.1 16.392 27.1 16.75V34.6H24.4V29.875C24.4 29.7358 24.3447 29.6022 24.2462 29.5038C24.1478 29.4053 24.0142 29.35 23.875 29.35H19.375C19.2358 29.35 19.1022 29.4053 19.0038 29.5038C18.9053 29.6022 18.85 29.7358 18.85 29.875V34.6H17.5C17.142 34.6 16.7986 34.4578 16.5454 34.2046C16.2922 33.9514 16.15 33.608 16.15 33.25ZM19.9 34.6V30.4H23.35V34.6H19.9ZM32.5 23.65C32.858 23.65 33.2014 23.7922 33.4546 24.0454C33.7078 24.2986 33.85 24.642 33.85 25V33.25C33.85 33.608 33.7078 33.9514 33.4546 34.2046C33.2014 34.4578 32.858 34.6 32.5 34.6H28.15V23.65H32.5Z" fill="#194C81" stroke="#194C81" stroke-width="0.3"/>
<mask id="path-3-outside-1_535_7683" maskUnits="userSpaceOnUse" x="16.5" y="15.75" width="17" height="16" fill="black">
<rect fill="white" x="16.5" y="15.75" width="17" height="16"/>
<path d="M17.875 19H19.375C19.4745 19 19.5698 18.9605 19.6402 18.8902C19.7105 18.8198 19.75 18.7245 19.75 18.625V17.125C19.75 17.0255 19.7105 16.9302 19.6402 16.8598C19.5698 16.7895 19.4745 16.75 19.375 16.75H17.875C17.7755 16.75 17.6802 16.7895 17.6098 16.8598C17.5395 16.9302 17.5 17.0255 17.5 17.125V18.625C17.5 18.7245 17.5395 18.8198 17.6098 18.8902C17.6802 18.9605 17.7755 19 17.875 19ZM18.25 17.5H19V18.25H18.25V17.5ZM17.875 22.75H19.375C19.4745 22.75 19.5698 22.7105 19.6402 22.6402C19.7105 22.5698 19.75 22.4745 19.75 22.375V20.875C19.75 20.7755 19.7105 20.6802 19.6402 20.6098C19.5698 20.5395 19.4745 20.5 19.375 20.5H17.875C17.7755 20.5 17.6802 20.5395 17.6098 20.6098C17.5395 20.6802 17.5 20.7755 17.5 20.875V22.375C17.5 22.4745 17.5395 22.5698 17.6098 22.6402C17.6802 22.7105 17.7755 22.75 17.875 22.75ZM18.25 21.25H19V22H18.25V21.25ZM19.375 26.5C19.4745 26.5 19.5698 26.4605 19.6402 26.3902C19.7105 26.3198 19.75 26.2245 19.75 26.125V24.625C19.75 24.5255 19.7105 24.4302 19.6402 24.3598C19.5698 24.2895 19.4745 24.25 19.375 24.25H17.875C17.7755 24.25 17.6802 24.2895 17.6098 24.3598C17.5395 24.4302 17.5 24.5255 17.5 24.625V26.125C17.5 26.2245 17.5395 26.3198 17.6098 26.3902C17.6802 26.4605 17.7755 26.5 17.875 26.5H19.375ZM18.25 25H19V25.75H18.25V25ZM23.875 19H25.375C25.4745 19 25.5698 18.9605 25.6402 18.8902C25.7105 18.8198 25.75 18.7245 25.75 18.625V17.125C25.75 17.0255 25.7105 16.9302 25.6402 16.8598C25.5698 16.7895 25.4745 16.75 25.375 16.75H23.875C23.7755 16.75 23.6802 16.7895 23.6098 16.8598C23.5395 16.9302 23.5 17.0255 23.5 17.125V18.625C23.5 18.7245 23.5395 18.8198 23.6098 18.8902C23.6802 18.9605 23.7755 19 23.875 19ZM24.25 17.5H25V18.25H24.25V17.5ZM23.875 22.75H25.375C25.4745 22.75 25.5698 22.7105 25.6402 22.6402C25.7105 22.5698 25.75 22.4745 25.75 22.375V20.875C25.75 20.7755 25.7105 20.6802 25.6402 20.6098C25.5698 20.5395 25.4745 20.5 25.375 20.5H23.875C23.7755 20.5 23.6802 20.5395 23.6098 20.6098C23.5395 20.6802 23.5 20.7755 23.5 20.875V22.375C23.5 22.4745 23.5395 22.5698 23.6098 22.6402C23.6802 22.7105 23.7755 22.75 23.875 22.75ZM24.25 21.25H25V22H24.25V21.25ZM23.875 26.5H25.375C25.4745 26.5 25.5698 26.4605 25.6402 26.3902C25.7105 26.3198 25.75 26.2245 25.75 26.125V24.625C25.75 24.5255 25.7105 24.4302 25.6402 24.3598C25.5698 24.2895 25.4745 24.25 25.375 24.25H23.875C23.7755 24.25 23.6802 24.2895 23.6098 24.3598C23.5395 24.4302 23.5 24.5255 23.5 24.625V26.125C23.5 26.2245 23.5395 26.3198 23.6098 26.3902C23.6802 26.4605 23.7755 26.5 23.875 26.5ZM24.25 25H25V25.75H24.25V25ZM30.625 27.25H32.125C32.2245 27.25 32.3198 27.2105 32.3902 27.1402C32.4605 27.0698 32.5 26.9745 32.5 26.875V25.375C32.5 25.2755 32.4605 25.1802 32.3902 25.1098C32.3198 25.0395 32.2245 25 32.125 25H30.625C30.5255 25 30.4302 25.0395 30.3598 25.1098C30.2895 25.1802 30.25 25.2755 30.25 25.375V26.875C30.25 26.9745 30.2895 27.0698 30.3598 27.1402C30.4302 27.2105 30.5255 27.25 30.625 27.25ZM31 25.75H31.75V26.5H31V25.75ZM30.625 31H32.125C32.2245 31 32.3198 30.9605 32.3902 30.8902C32.4605 30.8198 32.5 30.7245 32.5 30.625V29.125C32.5 29.0255 32.4605 28.9302 32.3902 28.8598C32.3198 28.7895 32.2245 28.75 32.125 28.75H30.625C30.5255 28.75 30.4302 28.7895 30.3598 28.8598C30.2895 28.9302 30.25 29.0255 30.25 29.125V30.625C30.25 30.7245 30.2895 30.8198 30.3598 30.8902C30.4302 30.9605 30.5255 31 30.625 31ZM31 29.5H31.75V30.25H31V29.5Z"/>
</mask>
<path d="M17.875 19H19.375C19.4745 19 19.5698 18.9605 19.6402 18.8902C19.7105 18.8198 19.75 18.7245 19.75 18.625V17.125C19.75 17.0255 19.7105 16.9302 19.6402 16.8598C19.5698 16.7895 19.4745 16.75 19.375 16.75H17.875C17.7755 16.75 17.6802 16.7895 17.6098 16.8598C17.5395 16.9302 17.5 17.0255 17.5 17.125V18.625C17.5 18.7245 17.5395 18.8198 17.6098 18.8902C17.6802 18.9605 17.7755 19 17.875 19ZM18.25 17.5H19V18.25H18.25V17.5ZM17.875 22.75H19.375C19.4745 22.75 19.5698 22.7105 19.6402 22.6402C19.7105 22.5698 19.75 22.4745 19.75 22.375V20.875C19.75 20.7755 19.7105 20.6802 19.6402 20.6098C19.5698 20.5395 19.4745 20.5 19.375 20.5H17.875C17.7755 20.5 17.6802 20.5395 17.6098 20.6098C17.5395 20.6802 17.5 20.7755 17.5 20.875V22.375C17.5 22.4745 17.5395 22.5698 17.6098 22.6402C17.6802 22.7105 17.7755 22.75 17.875 22.75ZM18.25 21.25H19V22H18.25V21.25ZM19.375 26.5C19.4745 26.5 19.5698 26.4605 19.6402 26.3902C19.7105 26.3198 19.75 26.2245 19.75 26.125V24.625C19.75 24.5255 19.7105 24.4302 19.6402 24.3598C19.5698 24.2895 19.4745 24.25 19.375 24.25H17.875C17.7755 24.25 17.6802 24.2895 17.6098 24.3598C17.5395 24.4302 17.5 24.5255 17.5 24.625V26.125C17.5 26.2245 17.5395 26.3198 17.6098 26.3902C17.6802 26.4605 17.7755 26.5 17.875 26.5H19.375ZM18.25 25H19V25.75H18.25V25ZM23.875 19H25.375C25.4745 19 25.5698 18.9605 25.6402 18.8902C25.7105 18.8198 25.75 18.7245 25.75 18.625V17.125C25.75 17.0255 25.7105 16.9302 25.6402 16.8598C25.5698 16.7895 25.4745 16.75 25.375 16.75H23.875C23.7755 16.75 23.6802 16.7895 23.6098 16.8598C23.5395 16.9302 23.5 17.0255 23.5 17.125V18.625C23.5 18.7245 23.5395 18.8198 23.6098 18.8902C23.6802 18.9605 23.7755 19 23.875 19ZM24.25 17.5H25V18.25H24.25V17.5ZM23.875 22.75H25.375C25.4745 22.75 25.5698 22.7105 25.6402 22.6402C25.7105 22.5698 25.75 22.4745 25.75 22.375V20.875C25.75 20.7755 25.7105 20.6802 25.6402 20.6098C25.5698 20.5395 25.4745 20.5 25.375 20.5H23.875C23.7755 20.5 23.6802 20.5395 23.6098 20.6098C23.5395 20.6802 23.5 20.7755 23.5 20.875V22.375C23.5 22.4745 23.5395 22.5698 23.6098 22.6402C23.6802 22.7105 23.7755 22.75 23.875 22.75ZM24.25 21.25H25V22H24.25V21.25ZM23.875 26.5H25.375C25.4745 26.5 25.5698 26.4605 25.6402 26.3902C25.7105 26.3198 25.75 26.2245 25.75 26.125V24.625C25.75 24.5255 25.7105 24.4302 25.6402 24.3598C25.5698 24.2895 25.4745 24.25 25.375 24.25H23.875C23.7755 24.25 23.6802 24.2895 23.6098 24.3598C23.5395 24.4302 23.5 24.5255 23.5 24.625V26.125C23.5 26.2245 23.5395 26.3198 23.6098 26.3902C23.6802 26.4605 23.7755 26.5 23.875 26.5ZM24.25 25H25V25.75H24.25V25ZM30.625 27.25H32.125C32.2245 27.25 32.3198 27.2105 32.3902 27.1402C32.4605 27.0698 32.5 26.9745 32.5 26.875V25.375C32.5 25.2755 32.4605 25.1802 32.3902 25.1098C32.3198 25.0395 32.2245 25 32.125 25H30.625C30.5255 25 30.4302 25.0395 30.3598 25.1098C30.2895 25.1802 30.25 25.2755 30.25 25.375V26.875C30.25 26.9745 30.2895 27.0698 30.3598 27.1402C30.4302 27.2105 30.5255 27.25 30.625 27.25ZM31 25.75H31.75V26.5H31V25.75ZM30.625 31H32.125C32.2245 31 32.3198 30.9605 32.3902 30.8902C32.4605 30.8198 32.5 30.7245 32.5 30.625V29.125C32.5 29.0255 32.4605 28.9302 32.3902 28.8598C32.3198 28.7895 32.2245 28.75 32.125 28.75H30.625C30.5255 28.75 30.4302 28.7895 30.3598 28.8598C30.2895 28.9302 30.25 29.0255 30.25 29.125V30.625C30.25 30.7245 30.2895 30.8198 30.3598 30.8902C30.4302 30.9605 30.5255 31 30.625 31ZM31 29.5H31.75V30.25H31V29.5Z" fill="#194C81"/>
<path d="M17.875 19H19.375C19.4745 19 19.5698 18.9605 19.6402 18.8902C19.7105 18.8198 19.75 18.7245 19.75 18.625V17.125C19.75 17.0255 19.7105 16.9302 19.6402 16.8598C19.5698 16.7895 19.4745 16.75 19.375 16.75H17.875C17.7755 16.75 17.6802 16.7895 17.6098 16.8598C17.5395 16.9302 17.5 17.0255 17.5 17.125V18.625C17.5 18.7245 17.5395 18.8198 17.6098 18.8902C17.6802 18.9605 17.7755 19 17.875 19ZM18.25 17.5H19V18.25H18.25V17.5ZM17.875 22.75H19.375C19.4745 22.75 19.5698 22.7105 19.6402 22.6402C19.7105 22.5698 19.75 22.4745 19.75 22.375V20.875C19.75 20.7755 19.7105 20.6802 19.6402 20.6098C19.5698 20.5395 19.4745 20.5 19.375 20.5H17.875C17.7755 20.5 17.6802 20.5395 17.6098 20.6098C17.5395 20.6802 17.5 20.7755 17.5 20.875V22.375C17.5 22.4745 17.5395 22.5698 17.6098 22.6402C17.6802 22.7105 17.7755 22.75 17.875 22.75ZM18.25 21.25H19V22H18.25V21.25ZM19.375 26.5C19.4745 26.5 19.5698 26.4605 19.6402 26.3902C19.7105 26.3198 19.75 26.2245 19.75 26.125V24.625C19.75 24.5255 19.7105 24.4302 19.6402 24.3598C19.5698 24.2895 19.4745 24.25 19.375 24.25H17.875C17.7755 24.25 17.6802 24.2895 17.6098 24.3598C17.5395 24.4302 17.5 24.5255 17.5 24.625V26.125C17.5 26.2245 17.5395 26.3198 17.6098 26.3902C17.6802 26.4605 17.7755 26.5 17.875 26.5H19.375ZM18.25 25H19V25.75H18.25V25ZM23.875 19H25.375C25.4745 19 25.5698 18.9605 25.6402 18.8902C25.7105 18.8198 25.75 18.7245 25.75 18.625V17.125C25.75 17.0255 25.7105 16.9302 25.6402 16.8598C25.5698 16.7895 25.4745 16.75 25.375 16.75H23.875C23.7755 16.75 23.6802 16.7895 23.6098 16.8598C23.5395 16.9302 23.5 17.0255 23.5 17.125V18.625C23.5 18.7245 23.5395 18.8198 23.6098 18.8902C23.6802 18.9605 23.7755 19 23.875 19ZM24.25 17.5H25V18.25H24.25V17.5ZM23.875 22.75H25.375C25.4745 22.75 25.5698 22.7105 25.6402 22.6402C25.7105 22.5698 25.75 22.4745 25.75 22.375V20.875C25.75 20.7755 25.7105 20.6802 25.6402 20.6098C25.5698 20.5395 25.4745 20.5 25.375 20.5H23.875C23.7755 20.5 23.6802 20.5395 23.6098 20.6098C23.5395 20.6802 23.5 20.7755 23.5 20.875V22.375C23.5 22.4745 23.5395 22.5698 23.6098 22.6402C23.6802 22.7105 23.7755 22.75 23.875 22.75ZM24.25 21.25H25V22H24.25V21.25ZM23.875 26.5H25.375C25.4745 26.5 25.5698 26.4605 25.6402 26.3902C25.7105 26.3198 25.75 26.2245 25.75 26.125V24.625C25.75 24.5255 25.7105 24.4302 25.6402 24.3598C25.5698 24.2895 25.4745 24.25 25.375 24.25H23.875C23.7755 24.25 23.6802 24.2895 23.6098 24.3598C23.5395 24.4302 23.5 24.5255 23.5 24.625V26.125C23.5 26.2245 23.5395 26.3198 23.6098 26.3902C23.6802 26.4605 23.7755 26.5 23.875 26.5ZM24.25 25H25V25.75H24.25V25ZM30.625 27.25H32.125C32.2245 27.25 32.3198 27.2105 32.3902 27.1402C32.4605 27.0698 32.5 26.9745 32.5 26.875V25.375C32.5 25.2755 32.4605 25.1802 32.3902 25.1098C32.3198 25.0395 32.2245 25 32.125 25H30.625C30.5255 25 30.4302 25.0395 30.3598 25.1098C30.2895 25.1802 30.25 25.2755 30.25 25.375V26.875C30.25 26.9745 30.2895 27.0698 30.3598 27.1402C30.4302 27.2105 30.5255 27.25 30.625 27.25ZM31 25.75H31.75V26.5H31V25.75ZM30.625 31H32.125C32.2245 31 32.3198 30.9605 32.3902 30.8902C32.4605 30.8198 32.5 30.7245 32.5 30.625V29.125C32.5 29.0255 32.4605 28.9302 32.3902 28.8598C32.3198 28.7895 32.2245 28.75 32.125 28.75H30.625C30.5255 28.75 30.4302 28.7895 30.3598 28.8598C30.2895 28.9302 30.25 29.0255 30.25 29.125V30.625C30.25 30.7245 30.2895 30.8198 30.3598 30.8902C30.4302 30.9605 30.5255 31 30.625 31ZM31 29.5H31.75V30.25H31V29.5Z" stroke="#194C81" stroke-width="0.01" mask="url(#path-3-outside-1_535_7683)"/>
</svg>
