<svg width="23" height="22" viewBox="0 0 23 22" fill="none" xmlns="http://www.w3.org/2000/svg">
<path d="M16.5 2.0003C16.7626 1.73766 17.0744 1.52932 17.4176 1.38718C17.7608 1.24503 18.1286 1.17188 18.5 1.17188C18.8714 1.17187 19.2392 1.24503 19.5824 1.38718C19.9256 1.52932 20.2374 1.73766 20.5 2.0003C20.7626 2.26295 20.971 2.57475 21.1131 2.91791C21.2553 3.26107 21.3284 3.62887 21.3284 4.0003C21.3284 4.37174 21.2553 4.73953 21.1131 5.08269C20.971 5.42585 20.7626 5.73766 20.5 6.0003L7 19.5003L1.5 21.0003L3 15.5003L16.5 2.0003Z" stroke="#194C81" stroke-width="2" stroke-linecap="round" stroke-linejoin="round"/>
</svg>
