<svg width="14" height="20" viewBox="0 0 14 20" fill="none" xmlns="http://www.w3.org/2000/svg">
<path d="M5.99997 20H3.99997C3.85227 19.999 3.70661 19.9653 3.57347 19.9014C3.44034 19.8374 3.32303 19.7447 3.22997 19.63C3.13222 19.5175 3.06083 19.3846 3.02104 19.241C2.98124 19.0974 2.97405 18.9467 2.99997 18.8L4.37997 12H0.999973C0.816345 12.0004 0.636157 11.9502 0.479166 11.8549C0.322175 11.7597 0.194442 11.623 0.109973 11.46C0.032601 11.3019 -0.001671 11.1262 0.01062 10.9506C0.0229111 10.775 0.0813294 10.6058 0.179973 10.46L7.17997 0.46C7.26847 0.321979 7.38955 0.207835 7.53254 0.127619C7.67553 0.0474034 7.83606 0.00357714 7.99997 0H9.99997C10.1477 0.000976784 10.2933 0.0346631 10.4265 0.0986378C10.5596 0.162613 10.6769 0.255287 10.77 0.37C10.8677 0.482469 10.9391 0.615365 10.9789 0.75897C11.0187 0.902574 11.0259 1.05326 11 1.2L9.61997 8H13C13.1836 7.99962 13.3638 8.04981 13.5208 8.14506C13.6778 8.24031 13.8055 8.37695 13.89 8.54C13.9673 8.6981 14.0016 8.87382 13.9893 9.04941C13.977 9.22499 13.9186 9.39422 13.82 9.54L6.81997 19.54C6.73148 19.678 6.6104 19.7922 6.46741 19.8724C6.32441 19.9526 6.16389 19.9964 5.99997 20ZM5.21997 18H5.47997L11.08 10H8.39997C8.25227 9.99902 8.10661 9.96534 7.97347 9.90136C7.84034 9.83739 7.72303 9.74471 7.62997 9.63C7.53571 9.51583 7.46797 9.38215 7.43166 9.23861C7.39534 9.09507 7.39135 8.94527 7.41997 8.8L8.77997 2H8.51997L2.91997 10H5.59997C5.74768 10.001 5.89334 10.0347 6.02647 10.0986C6.15961 10.1626 6.27692 10.2553 6.36997 10.37C6.46424 10.4842 6.53197 10.6179 6.56829 10.7614C6.60461 10.9049 6.6086 11.0547 6.57997 11.2L5.21997 18Z" fill="#194C81"/>
</svg>
