<svg width="25" height="25" viewBox="0 0 25 25" fill="none" xmlns="http://www.w3.org/2000/svg">
<path d="M12.25 10.7891C11.4589 10.7891 10.6855 10.5545 10.0277 10.1149C9.36992 9.67542 8.85723 9.0507 8.55448 8.3198C8.25173 7.58889 8.17252 6.78463 8.32686 6.0087C8.4812 5.23278 8.86216 4.52005 9.42157 3.96064C9.98098 3.40123 10.6937 3.02026 11.4696 2.86592C12.2456 2.71158 13.0498 2.7908 13.7807 3.09355C14.5116 3.3963 15.1364 3.90899 15.5759 4.56678C16.0154 5.22458 16.25 5.99794 16.25 6.78906C16.25 7.84993 15.8286 8.86735 15.0784 9.61749C14.3283 10.3676 13.3109 10.7891 12.25 10.7891ZM12.25 4.78906C11.8544 4.78906 11.4678 4.90636 11.1389 5.12613C10.81 5.34589 10.5536 5.65824 10.4022 6.0237C10.2509 6.38915 10.2113 6.79128 10.2884 7.17924C10.3656 7.56721 10.5561 7.92357 10.8358 8.20328C11.1155 8.48298 11.4719 8.67346 11.8598 8.75064C12.2478 8.82781 12.6499 8.7882 13.0154 8.63682C13.3808 8.48545 13.6932 8.2291 13.9129 7.9002C14.1327 7.57131 14.25 7.18463 14.25 6.78906C14.25 6.25863 14.0393 5.74992 13.6642 5.37485C13.2891 4.99978 12.7804 4.78906 12.25 4.78906ZM20.25 22.7891H4.25C3.98478 22.7891 3.73043 22.6837 3.54289 22.4962C3.35536 22.3086 3.25 22.0543 3.25 21.7891C3.25 19.4021 4.19821 17.1129 5.88604 15.4251C7.57387 13.7373 9.86305 12.7891 12.25 12.7891C14.6369 12.7891 16.9261 13.7373 18.614 15.4251C20.3018 17.1129 21.25 19.4021 21.25 21.7891C21.25 22.0543 21.1446 22.3086 20.9571 22.4962C20.7696 22.6837 20.5152 22.7891 20.25 22.7891ZM5.32 20.7891H19.18C18.9422 19.1205 18.1104 17.5937 16.8374 16.4892C15.5643 15.3847 13.9354 14.7765 12.25 14.7765C10.5646 14.7765 8.93571 15.3847 7.66264 16.4892C6.38957 17.5937 5.55776 19.1205 5.32 20.7891Z" fill="#194C81"/>
</svg>
