<svg width="24" height="24" viewBox="0 0 24 24" fill="none" xmlns="http://www.w3.org/2000/svg">
<path d="M22.3943 2.6228C22.8101 2.6228 23.1848 2.95631 23.1848 3.41333C23.1848 3.82918 22.8513 4.20386 22.3943 4.20386C21.9784 4.20386 21.6038 3.87036 21.6038 3.41333C21.6038 2.95631 21.9784 2.6228 22.3943 2.6228Z" fill="#D1E5FA"/>
<path d="M19.5615 20.3274C20.1461 20.3274 20.6032 20.7844 20.6032 21.3691C20.6032 21.9537 20.1461 22.4108 19.5615 22.4108C18.9768 22.4108 18.5198 21.9537 18.5198 21.3691C18.5198 20.7844 18.9768 20.3274 19.5615 20.3274Z" fill="white"/>
<path d="M1.56861 14.5796C1.98446 14.5796 2.35914 14.9131 2.35914 15.3701C2.35914 15.8271 2.02563 16.1607 1.56861 16.1607C1.11158 16.1607 0.778076 15.8271 0.778076 15.3701C0.778076 14.9131 1.15275 14.5796 1.56861 14.5796Z" fill="#D1E5FA"/>
<path d="M3.40106 2.6228C3.98573 2.6228 4.44275 3.07983 4.44275 3.66449C4.44275 4.24915 3.98573 4.70618 3.40106 4.70618C2.8164 4.70618 2.35938 4.24915 2.35938 3.66449C2.35938 3.07983 2.8164 2.6228 3.40106 2.6228Z" fill="white"/>
<path d="M9.10745 8.32935H6.52588V11.4544H9.10745V8.32935Z" fill="white"/>
<path d="M19.5615 8.32935H16.9387V11.4544H19.5615V8.32935Z" fill="white"/>
<path d="M14.4397 9.62211V11.4543H11.7305V9.62211C11.7305 8.87275 12.3563 8.28809 13.0645 8.28809C13.4392 8.28809 13.7727 8.45278 14.0238 8.70394C14.3162 8.86863 14.4397 9.24331 14.4397 9.62211Z" fill="white"/>
<path d="M16.9389 8.32948V11.4545H14.4396V9.62232C14.4396 9.24764 14.2749 8.91414 14.0238 8.66298C13.7726 8.41182 13.4391 8.24713 13.0644 8.24713C12.3151 8.24713 11.7304 8.87296 11.7304 9.58115V11.4545H9.10767V4.66504H16.9389V8.32948Z" fill="#D1E5FA"/>
<path d="M18.5197 4.70612H16.9387H9.10748H7.56348L13.0642 1.58105L18.5197 4.70612Z" fill="white"/>
<path d="M7.94239 21.6161L7.14774 23.4895L2.98511 21.6572L3.85798 19.7427L7.94239 21.6161Z" fill="white"/>
<path d="M21.8096 16.0783C21.8096 16.2883 21.7684 16.4941 21.686 16.7041C21.5214 17.0376 21.2702 17.33 20.9367 17.4535L15.7324 19.8292C14.9418 20.2039 14.0648 20.3686 13.192 20.3686C12.3191 20.3686 11.4833 20.2039 10.6927 19.8292C9.81986 19.4545 8.77817 19.8292 8.36232 20.7021L7.98764 21.5749L3.86206 19.7015L4.40555 18.4499C5.6984 15.4936 9.15285 14.2008 12.1091 15.4936L12.525 15.6583C14.1472 16.3665 15.9835 16.3665 17.5646 15.6583L19.7303 14.699C20.772 14.2419 21.8137 15.0736 21.8137 16.0742L21.8096 16.0783Z" fill="#D1E5FA"/>
<path d="M23.1849 12.4961C23.4772 12.4961 23.7243 12.7473 23.7243 13.0355C23.7243 13.3237 23.4731 13.5337 23.1849 13.5337C22.8967 13.5337 22.6455 13.2825 22.6455 12.9943C22.6455 12.7061 22.8967 12.4961 23.1849 12.4961Z" fill="#194C81"/>
<path d="M23.1849 19.2856C23.4772 19.2856 23.7243 19.5368 23.7243 19.8291C23.7243 20.1215 23.4731 20.3685 23.1849 20.3685C22.8967 20.3685 22.6455 20.1173 22.6455 19.8291C22.6867 19.4956 22.8967 19.2856 23.1849 19.2856Z" fill="#194C81"/>
<path d="M21.6448 6.24609C21.9372 6.24609 22.1842 6.49725 22.1842 6.78547C22.1842 7.07368 21.9331 7.32484 21.6448 7.32484C21.3566 7.32484 21.1055 7.07368 21.1055 6.78547C21.1055 6.49725 21.3566 6.24609 21.6448 6.24609Z" fill="#194C81"/>
<path d="M19.5616 0C19.8539 0 20.101 0.251158 20.101 0.543489C20.101 0.835821 19.8498 1.08286 19.5616 1.08286C19.2734 1.08286 19.0222 0.831703 19.0222 0.543489C19.0222 0.255275 19.2734 0 19.5616 0Z" fill="#194C81"/>
<path d="M14.8555 21.8672C15.1479 21.8672 15.399 22.1183 15.399 22.4107C15.399 22.703 15.1479 22.95 14.8555 22.95C14.5632 22.95 14.3162 22.6989 14.3162 22.4107C14.3573 22.1183 14.5673 21.8672 14.8555 21.8672Z" fill="#194C81"/>
<path d="M8.60526 1.04175C8.89759 1.04175 9.14875 1.29291 9.14875 1.58524C9.14875 1.87757 8.89759 2.12461 8.60526 2.12461C8.31293 2.12461 8.06177 1.87345 8.06177 1.58524C8.10294 1.29291 8.31293 1.04175 8.60526 1.04175Z" fill="#194C81"/>
<path d="M4.44269 14.5796C4.73502 14.5796 4.98206 14.8307 4.98206 15.1231C4.98206 15.4154 4.73091 15.6213 4.44269 15.6213C4.15448 15.6213 3.90332 15.3701 3.90332 15.0778C3.90332 14.7855 4.15448 14.5796 4.44269 14.5796Z" fill="#194C81"/>
<path d="M3.94025 8.32935C4.23258 8.32935 4.47962 8.5805 4.47962 8.87283C4.47962 9.16517 4.22846 9.41221 3.94025 9.41221C3.65204 9.41221 3.40088 9.16105 3.40088 8.87283C3.40088 8.58462 3.65204 8.32935 3.94025 8.32935Z" fill="#194C81"/>
<path d="M1.31745 18.7422C1.60978 18.7422 1.85682 18.9933 1.85682 19.2816C1.85682 19.5698 1.60566 19.7798 1.31745 19.7798C1.02923 19.7798 0.778076 19.5286 0.778076 19.2404C0.81925 18.9892 1.02923 18.7422 1.31745 18.7422Z" fill="#194C81"/>
<path d="M7.14771 23.9918C7.06536 23.9918 7.02419 23.9918 6.93772 23.9507L2.77097 22.1184C2.51981 21.9949 2.39629 21.7026 2.51981 21.4514L3.93618 18.2852C4.9367 15.9959 7.22594 14.5384 9.72517 14.5384C10.598 14.5384 11.475 14.7031 12.3067 15.0819L12.7226 15.2466C13.4308 15.5801 14.2213 15.7448 15.0118 15.7448C15.8024 15.7448 16.5929 15.5801 17.3464 15.2466L19.5121 14.2873C19.8044 14.1637 20.0515 14.1226 20.3438 14.1226C21.4267 14.1226 22.3448 15.0407 22.3448 16.1236C22.3448 16.4159 22.3037 16.663 22.1801 16.9553C21.9701 17.4123 21.6408 17.787 21.1796 17.9558L15.9712 20.3315C15.0983 20.7062 14.1801 20.9162 13.2208 20.9162C12.2614 20.9162 11.3886 20.7062 10.5116 20.3315C10.3469 20.2492 10.1781 20.208 10.0134 20.208C9.51518 20.208 9.09521 20.5003 8.88935 20.9574L7.68296 23.7077C7.64179 23.8313 7.51827 23.9177 7.39063 24.0001H7.13947L7.14771 23.9918ZM3.68914 21.3691L6.85538 22.7854L7.85589 20.4962C8.23057 19.6645 9.0211 19.1622 9.93927 19.1622C10.2728 19.1622 10.5651 19.2445 10.8574 19.3722C11.5656 19.7057 12.3562 19.8704 13.1467 19.8704C13.9372 19.8704 14.7277 19.7057 15.4812 19.3722L20.6897 16.9965C20.8996 16.9141 21.0643 16.7041 21.1879 16.4983C21.229 16.3747 21.2702 16.2471 21.2702 16.0824C21.2702 15.5389 20.8132 15.1231 20.2697 15.1231C20.1462 15.1231 19.9774 15.1642 19.8538 15.2054L17.7705 16.1648C16.8976 16.5394 15.9794 16.7494 15.0201 16.7494C14.0607 16.7494 13.1879 16.5394 12.3109 16.1648L11.895 16.0001C11.228 15.7077 10.4786 15.543 9.72928 15.543C7.64591 15.543 5.73134 16.7947 4.89964 18.7093L3.69326 21.3732L3.68914 21.3691Z" fill="#194C81"/>
<path d="M18.5199 5.20842H16.9388C16.6465 5.20842 16.3994 4.95726 16.3994 4.66905C16.3994 4.45906 16.4818 4.29437 16.6506 4.21202L13.0273 2.12865L9.36291 4.21202C9.5276 4.29437 9.61407 4.46318 9.61407 4.66905C9.61407 4.96138 9.36291 5.20842 9.07058 5.20842H7.53069C7.27953 5.20842 7.07366 5.04373 7.03249 4.83374C6.99132 4.62376 7.07366 4.37672 7.28365 4.24908L12.7803 1.12402C12.945 1.04167 13.155 1.04167 13.2785 1.12402L18.734 4.24908C18.944 4.3726 19.0263 4.62376 18.9851 4.83374C18.944 5.04373 18.734 5.20842 18.5281 5.20842H18.5199Z" fill="#194C81"/>
<path d="M16.9386 8.87279C16.6463 8.87279 16.3993 8.62163 16.3993 8.3293V5.20423H9.65094V8.3293C9.65094 8.62163 9.39979 8.87279 9.10745 8.87279C8.81512 8.87279 8.56396 8.62163 8.56396 8.3293V4.66486C8.56396 4.37253 8.81512 4.12549 9.10745 4.12549H16.9386C17.231 4.12549 17.478 4.37665 17.478 4.66486V8.3293C17.478 8.62163 17.2269 8.87279 16.9386 8.87279Z" fill="#194C81"/>
<path d="M14.4394 11.9939C14.1471 11.9939 13.8959 11.7428 13.8959 11.4504V9.61823C13.8959 9.40825 13.8136 9.20238 13.6448 9.03357C13.4801 8.86887 13.2701 8.78241 13.0601 8.78241C12.6031 8.78241 12.2284 9.15709 12.2284 9.61411V11.4463C12.2284 11.7387 11.9772 11.9898 11.689 11.9898C11.4008 11.9898 11.1497 11.7387 11.1497 11.4463V9.61411C11.1497 8.57243 11.9814 7.74072 13.023 7.74072C13.5212 7.74072 13.9824 7.95071 14.3571 8.28009C14.6906 8.6136 14.9006 9.1118 14.9006 9.61411V11.4463C14.9829 11.7387 14.7359 11.9898 14.4435 11.9898L14.4394 11.9939Z" fill="#194C81"/>
<path d="M19.5615 11.9938C19.2692 11.9938 19.0221 11.7426 19.0221 11.4503V8.82754H17.441V11.4503C17.441 11.7426 17.1899 11.9938 16.9017 11.9938C16.6135 11.9938 16.3623 11.7426 16.3623 11.4503V8.32523C16.3623 8.0329 16.6135 7.78174 16.9017 7.78174H19.5244C19.8168 7.78174 20.0638 8.0329 20.0638 8.32523V11.4503C20.0638 11.7426 19.8126 11.9938 19.5656 11.9938H19.5615Z" fill="#194C81"/>
<path d="M9.10764 11.9938C8.81531 11.9938 8.56415 11.7426 8.56415 11.4503V8.82754H7.02427V11.4503C7.02427 11.7426 6.77311 11.9938 6.4849 11.9938C6.19668 11.9938 5.94141 11.7426 5.94141 11.4503V8.32523C5.94141 8.0329 6.19256 7.78174 6.4849 7.78174H9.06647C9.3588 7.78174 9.60996 8.0329 9.60996 8.32523V11.4503C9.65113 11.7426 9.39997 11.9938 9.11176 11.9938H9.10764Z" fill="#194C81"/>
<path d="M7.94235 22.1183C7.86 22.1183 7.77765 22.1183 7.73236 22.0772L3.65208 20.2038C3.40092 20.0802 3.2774 19.7879 3.40092 19.4956C3.52444 19.2444 3.81677 19.1209 4.1091 19.2444L8.23056 21.1178C8.48172 21.2413 8.60524 21.5337 8.48172 21.826C8.3582 22.036 8.14822 22.1183 7.94235 22.1183Z" fill="#194C81"/>
<path d="M19.5615 22.9089C18.6887 22.9089 17.9805 22.2008 17.9805 21.3279C17.9805 20.455 18.6887 19.7468 19.5615 19.7468C20.4344 19.7468 21.1426 20.455 21.1426 21.3279C21.1014 22.2008 20.3932 22.9089 19.5615 22.9089ZM19.5615 20.8256C19.2692 20.8256 19.0222 21.0767 19.0222 21.3691C19.0222 21.6614 19.2733 21.9084 19.5615 21.9084C19.8497 21.9084 20.1009 21.6573 20.1009 21.3691C20.1009 21.0808 19.8086 20.8256 19.5615 20.8256Z" fill="#194C81"/>
<path d="M1.56873 16.6587C0.860542 16.6587 0.275879 16.074 0.275879 15.3658C0.275879 14.6577 0.860542 14.073 1.56873 14.073C2.27691 14.073 2.86157 14.6577 2.86157 15.3658C2.86157 16.074 2.27691 16.6587 1.56873 16.6587ZM1.56873 15.1188C1.44521 15.1188 1.31757 15.2423 1.31757 15.37C1.31757 15.4976 1.44109 15.6211 1.56873 15.6211C1.69636 15.6211 1.81988 15.4976 1.81988 15.37C1.81988 15.2423 1.73754 15.1188 1.56873 15.1188Z" fill="#194C81"/>
<path d="M22.3942 4.70605C21.686 4.70605 21.1013 4.12139 21.1013 3.41321C21.1013 2.70502 21.686 2.12036 22.3942 2.12036C23.1023 2.12036 23.687 2.70502 23.687 3.41321C23.7282 4.08022 23.1023 4.70605 22.3942 4.70605ZM22.3942 3.12499C22.2706 3.12499 22.143 3.24851 22.143 3.37615C22.143 3.50379 22.2665 3.62731 22.3942 3.62731C22.5218 3.62731 22.6453 3.50379 22.6453 3.37615C22.6865 3.25263 22.563 3.12499 22.3942 3.12499Z" fill="#194C81"/>
<path d="M3.40088 5.20835C2.52801 5.20835 1.81982 4.50017 1.81982 3.66846C1.81982 2.79559 2.52801 2.0874 3.40088 2.0874C4.27376 2.0874 4.98194 2.79559 4.98194 3.66846C4.98194 4.54134 4.27376 5.20835 3.40088 5.20835ZM3.40088 3.12497C3.10855 3.12497 2.8574 3.37613 2.8574 3.66846C2.8574 3.96079 3.10855 4.16666 3.40088 4.16666C3.69322 4.16666 3.94026 3.9155 3.94026 3.66846C3.94026 3.37613 3.6891 3.12497 3.40088 3.12497Z" fill="#194C81"/>
<path d="M21.1014 11.9938H4.982C4.68967 11.9938 4.44263 11.7426 4.44263 11.4503C4.44263 11.1579 4.69378 10.9109 4.982 10.9109H21.1014C21.3937 10.9109 21.6408 11.162 21.6408 11.4503C21.6408 11.7385 21.3896 11.9938 21.1014 11.9938Z" fill="#194C81"/>
</svg>
