<svg width="18" height="20" viewBox="0 0 18 20" fill="none" xmlns="http://www.w3.org/2000/svg">
<path d="M15.75 8.5C15.75 13.75 9 18.25 9 18.25C9 18.25 2.25 13.75 2.25 8.5C2.25 6.70979 2.96116 4.9929 4.22703 3.72703C5.4929 2.46116 7.20979 1.75 9 1.75C10.7902 1.75 12.5071 2.46116 13.773 3.72703C15.0388 4.9929 15.75 6.70979 15.75 8.5Z" stroke="#194C81" stroke-width="2" stroke-linecap="round" stroke-linejoin="round"/>
<path d="M9 10.75C10.2426 10.75 11.25 9.74264 11.25 8.5C11.25 7.25736 10.2426 6.25 9 6.25C7.75736 6.25 6.75 7.25736 6.75 8.5C6.75 9.74264 7.75736 10.75 9 10.75Z" stroke="#194C81" stroke-width="2" stroke-linecap="round" stroke-linejoin="round"/>
</svg>
