<svg width="28" height="29" viewBox="0 0 28 29" fill="none" xmlns="http://www.w3.org/2000/svg">
<path d="M6.125 3.5625V14.9375C6.12568 15.5175 6.35637 16.0735 6.76646 16.4835C7.17655 16.8936 7.73255 17.1243 8.3125 17.125H18.8996C19.1771 17.1245 19.4476 17.2124 19.6717 17.376L23.6513 20.27C23.9776 20.5072 24.3632 20.6496 24.7653 20.6813C25.1675 20.7131 25.5707 20.633 25.9302 20.4499C26.2897 20.2668 26.5916 19.9879 26.8024 19.6439C27.0133 19.2999 27.1249 18.9044 27.125 18.5009V3.5625C27.1243 2.98255 26.8936 2.42655 26.4835 2.01646C26.0735 1.60637 25.5175 1.37568 24.9375 1.375H8.3125C7.73255 1.37568 7.17655 1.60637 6.76646 2.01646C6.35637 2.42655 6.12568 2.98255 6.125 3.5625ZM7 3.5625C7.00038 3.21452 7.13879 2.8809 7.38484 2.63484C7.6309 2.38879 7.96452 2.25038 8.3125 2.25H24.9375C25.2855 2.25038 25.6191 2.38879 25.8652 2.63484C26.1112 2.8809 26.2496 3.21452 26.25 3.5625V18.5009C26.25 18.7431 26.1831 18.9805 26.0565 19.1869C25.93 19.3933 25.7488 19.5607 25.5331 19.6706C25.3173 19.7805 25.0754 19.8285 24.834 19.8094C24.5927 19.7903 24.3613 19.7049 24.1655 19.5624L20.8138 17.125H23.1875C23.3035 17.125 23.4148 17.0789 23.4969 16.9969C23.5789 16.9148 23.625 16.8035 23.625 16.6875C23.625 16.5715 23.5789 16.4602 23.4969 16.3781C23.4148 16.2961 23.3035 16.25 23.1875 16.25H8.3125C7.96452 16.2496 7.6309 16.1112 7.38484 15.8652C7.13879 15.6191 7.00038 15.2855 7 14.9375V3.5625Z" fill="#001833"/>
<path d="M23.1875 5.75H21.4375C21.3215 5.75 21.2102 5.70391 21.1281 5.62186C21.0461 5.53981 21 5.42853 21 5.3125C21 5.19647 21.0461 5.08519 21.1281 5.00314C21.2102 4.92109 21.3215 4.875 21.4375 4.875H23.1875C23.3035 4.875 23.4148 4.92109 23.4969 5.00314C23.5789 5.08519 23.625 5.19647 23.625 5.3125C23.625 5.42853 23.5789 5.53981 23.4969 5.62186C23.4148 5.70391 23.3035 5.75 23.1875 5.75ZM19.6802 5.75H12.6875C12.5715 5.75 12.4602 5.70391 12.3781 5.62186C12.2961 5.53981 12.25 5.42853 12.25 5.3125C12.25 5.19647 12.2961 5.08519 12.3781 5.00314C12.4602 4.92109 12.5715 4.875 12.6875 4.875H19.6802C19.7963 4.875 19.9075 4.92109 19.9896 5.00314C20.0716 5.08519 20.1177 5.19647 20.1177 5.3125C20.1177 5.42853 20.0716 5.53981 19.9896 5.62186C19.9075 5.70391 19.7963 5.75 19.6802 5.75ZM10.9375 5.75H10.0625C9.94647 5.75 9.83519 5.70391 9.75314 5.62186C9.67109 5.53981 9.625 5.42853 9.625 5.3125C9.625 5.19647 9.67109 5.08519 9.75314 5.00314C9.83519 4.92109 9.94647 4.875 10.0625 4.875H10.9375C11.0535 4.875 11.1648 4.92109 11.2469 5.00314C11.3289 5.08519 11.375 5.19647 11.375 5.3125C11.375 5.42853 11.3289 5.53981 11.2469 5.62186C11.1648 5.70391 11.0535 5.75 10.9375 5.75ZM23.1875 8.375H22.75C22.634 8.375 22.5227 8.32891 22.4406 8.24686C22.3586 8.16481 22.3125 8.05353 22.3125 7.9375C22.3125 7.82147 22.3586 7.71019 22.4406 7.62814C22.5227 7.54609 22.634 7.5 22.75 7.5H23.1875C23.3035 7.5 23.4148 7.54609 23.4969 7.62814C23.5789 7.71019 23.625 7.82147 23.625 7.9375C23.625 8.05353 23.5789 8.16481 23.4969 8.24686C23.4148 8.32891 23.3035 8.375 23.1875 8.375ZM10.9375 11H10.0625C9.94647 11 9.83519 10.9539 9.75314 10.8719C9.67109 10.7898 9.625 10.6785 9.625 10.5625C9.625 10.4465 9.67109 10.3352 9.75314 10.2531C9.83519 10.1711 9.94647 10.125 10.0625 10.125H10.9375C11.0535 10.125 11.1648 10.1711 11.2469 10.2531C11.3289 10.3352 11.375 10.4465 11.375 10.5625C11.375 10.6785 11.3289 10.7898 11.2469 10.8719C11.1648 10.9539 11.0535 11 10.9375 11ZM18.375 13.625H17.0625C16.9465 13.625 16.8352 13.5789 16.7531 13.4969C16.6711 13.4148 16.625 13.3035 16.625 13.1875C16.625 13.0715 16.6711 12.9602 16.7531 12.8781C16.8352 12.7961 16.9465 12.75 17.0625 12.75H18.375C18.491 12.75 18.6023 12.7961 18.6844 12.8781C18.7664 12.9602 18.8125 13.0715 18.8125 13.1875C18.8125 13.3035 18.7664 13.4148 18.6844 13.4969C18.6023 13.5789 18.491 13.625 18.375 13.625ZM21 8.375H18.375C18.259 8.375 18.1477 8.32891 18.0656 8.24686C17.9836 8.16481 17.9375 8.05353 17.9375 7.9375C17.9375 7.82147 17.9836 7.71019 18.0656 7.62814C18.1477 7.54609 18.259 7.5 18.375 7.5H21C21.116 7.5 21.2273 7.54609 21.3094 7.62814C21.3914 7.71019 21.4375 7.82147 21.4375 7.9375C21.4375 8.05353 21.3914 8.16481 21.3094 8.24686C21.2273 8.32891 21.116 8.375 21 8.375ZM16.625 8.375H10.0625C9.94647 8.375 9.83519 8.32891 9.75314 8.24686C9.67109 8.16481 9.625 8.05353 9.625 7.9375C9.625 7.82147 9.67109 7.71019 9.75314 7.62814C9.83519 7.54609 9.94647 7.5 10.0625 7.5H16.625C16.741 7.5 16.8523 7.54609 16.9344 7.62814C17.0164 7.71019 17.0625 7.82147 17.0625 7.9375C17.0625 8.05353 17.0164 8.16481 16.9344 8.24686C16.8523 8.32891 16.741 8.375 16.625 8.375ZM23.1875 11H16.1875C16.0715 11 15.9602 10.9539 15.8781 10.8719C15.7961 10.7898 15.75 10.6785 15.75 10.5625C15.75 10.4465 15.7961 10.3352 15.8781 10.2531C15.9602 10.1711 16.0715 10.125 16.1875 10.125H23.1875C23.3035 10.125 23.4148 10.1711 23.4969 10.2531C23.5789 10.3352 23.625 10.4465 23.625 10.5625C23.625 10.6785 23.5789 10.7898 23.4969 10.8719C23.4148 10.9539 23.3035 11 23.1875 11ZM23.1875 13.625H20.125C20.009 13.625 19.8977 13.5789 19.8156 13.4969C19.7336 13.4148 19.6875 13.3035 19.6875 13.1875C19.6875 13.0715 19.7336 12.9602 19.8156 12.8781C19.8977 12.7961 20.009 12.75 20.125 12.75H23.1875C23.3035 12.75 23.4148 12.7961 23.4969 12.8781C23.5789 12.9602 23.625 13.0715 23.625 13.1875C23.625 13.3035 23.5789 13.4148 23.4969 13.4969C23.4148 13.5789 23.3035 13.625 23.1875 13.625Z" fill="#001833"/>
<path d="M18.3006 18.0743C17.9715 17.7473 17.5265 17.5633 17.0625 17.5625H16.38C16.0722 16.4457 15.4727 15.431 14.6431 14.6225L14.9713 14.0275C15.0818 13.8261 15.1517 13.6049 15.1768 13.3765C15.2019 13.1482 15.1818 12.9171 15.1176 12.6965C15.0534 12.4759 14.9464 12.2701 14.8027 12.0909C14.659 11.9116 14.4814 11.7624 14.28 11.6518C14.0786 11.5412 13.8574 11.4714 13.6291 11.4463C13.4007 11.4212 13.1696 11.4413 12.949 11.5055C12.7284 11.5696 12.5226 11.6767 12.3434 11.8204C12.1642 11.9641 12.015 12.1417 11.9044 12.3431L11.5763 12.9381C10.582 12.6931 9.54305 12.6931 8.54875 12.9381L8.22063 12.3431C8.03289 12.0032 7.73756 11.7353 7.38104 11.5815C7.02452 11.4277 6.627 11.3967 6.25093 11.4933C5.87486 11.59 5.54155 11.8088 5.30337 12.1154C5.06518 12.4221 4.9356 12.7992 4.935 13.1875C4.93491 13.4816 5.01022 13.7708 5.15375 14.0275L5.48187 14.6225C4.65226 15.431 4.05278 16.4457 3.745 17.5625H3.0625C2.59837 17.5625 2.15325 17.7468 1.82506 18.075C1.49687 18.4032 1.3125 18.8483 1.3125 19.3125C1.3125 19.7766 1.49687 20.2217 1.82506 20.5499C2.15325 20.8781 2.59837 21.0625 3.0625 21.0625H3.745C4.05278 22.1792 4.65226 23.194 5.48187 24.0025L5.15375 24.5931C4.92981 24.9998 4.8766 25.4788 5.00582 25.9247C5.13504 26.3706 5.43612 26.747 5.84281 26.9709C6.24951 27.1948 6.7285 27.2481 7.17443 27.1188C7.62035 26.9896 7.99668 26.6885 8.22063 26.2818L8.54875 25.6868C9.54305 25.9318 10.582 25.9318 11.5763 25.6868L11.9044 26.2818C12.0153 26.4832 12.1647 26.6608 12.3442 26.8044C12.5237 26.948 12.7298 27.0548 12.9506 27.1188C13.1714 27.1828 13.4026 27.2027 13.6311 27.1773C13.8596 27.1519 14.0808 27.0818 14.2822 26.9709C14.4836 26.86 14.6611 26.7106 14.8047 26.531C14.9483 26.3515 15.0552 26.1455 15.1192 25.9247C15.1832 25.7039 15.203 25.4727 15.1777 25.2442C15.1523 25.0157 15.0821 24.7945 14.9713 24.5931L14.6431 24.0025C15.4727 23.194 16.0722 22.1792 16.38 21.0625H17.0625C17.4086 21.0623 17.7469 20.9595 18.0346 20.7672C18.3224 20.5748 18.5467 20.3015 18.6792 19.9818C18.8116 19.662 18.8464 19.3102 18.779 18.9707C18.7117 18.6312 18.5452 18.3193 18.3006 18.0743ZM10.0625 21.9331C9.54438 21.9322 9.03814 21.7778 8.60775 21.4893C8.17737 21.2008 7.84216 20.7912 7.64448 20.3123C7.4468 19.8334 7.39553 19.3066 7.49714 18.7985C7.59875 18.2905 7.84868 17.8239 8.21536 17.4579C8.58203 17.0918 9.04899 16.8426 9.55722 16.7419C10.0655 16.6411 10.5922 16.6933 11.0708 16.8917C11.5494 17.0902 11.9584 17.4261 12.2461 17.857C12.5339 18.2878 12.6875 18.7943 12.6875 19.3125C12.6868 20.008 12.4098 20.6748 11.9176 21.1663C11.4253 21.6577 10.7581 21.9335 10.0625 21.9331Z" fill="#8DC1F3"/>
<path d="M18.8125 19.3125C18.8128 19.0826 18.7678 18.8549 18.6799 18.6424C18.5921 18.4299 18.4632 18.2369 18.3006 18.0743C18.1381 17.9118 17.945 17.7829 17.7326 17.695C17.5201 17.6072 17.2924 17.5622 17.0625 17.5625H16.38C16.0722 16.4457 15.4728 15.431 14.6431 14.6225L14.9713 14.0275C15.0819 13.8261 15.1517 13.6049 15.1768 13.3765C15.2019 13.1482 15.1818 12.9171 15.1176 12.6965C15.0535 12.4759 14.9464 12.2701 14.8027 12.0909C14.659 11.9116 14.4814 11.7624 14.28 11.6518C14.0786 11.5412 13.8575 11.4714 13.6291 11.4463C13.4007 11.4212 13.1696 11.4413 12.949 11.5055C12.7284 11.5696 12.5226 11.6767 12.3434 11.8204C12.1642 11.9641 12.015 12.1417 11.9044 12.3431L11.5763 12.9381C10.582 12.6931 9.54306 12.6931 8.54876 12.9381L8.22064 12.3431C8.06132 12.0569 7.82489 11.8212 7.53824 11.6627C7.25158 11.5043 6.92621 11.4294 6.59913 11.4467C6.34521 12.225 6.36957 13.9091 7.43751 14.5C9.62501 15.7102 12.6875 14.0625 14 16.25C15.3125 18.4375 13.5625 19.75 14 21.0625C14.4375 22.375 13.5625 24.125 11.375 23.6875C9.31172 23.2748 5.30487 24.8087 6.69201 27.187C7.00431 27.1859 7.31064 27.1014 7.57937 26.9422C7.84809 26.7831 8.06947 26.5551 8.22064 26.2818L8.54876 25.6868C9.54306 25.9318 10.582 25.9318 11.5763 25.6868L11.9044 26.2818C12.0153 26.4832 12.1647 26.6608 12.3442 26.8044C12.5237 26.948 12.7298 27.0548 12.9506 27.1188C13.1714 27.1828 13.4026 27.2027 13.6311 27.1773C13.8596 27.1519 14.0808 27.0818 14.2822 26.9709C14.4836 26.86 14.6611 26.7106 14.8047 26.531C14.9484 26.3515 15.0552 26.1455 15.1192 25.9247C15.1832 25.7039 15.203 25.4727 15.1777 25.2442C15.1523 25.0157 15.0821 24.7945 14.9713 24.5931L14.6431 24.0025C15.4728 23.194 16.0722 22.1792 16.38 21.0625H17.0625C17.2923 21.0625 17.5199 21.0173 17.7323 20.9294C17.9446 20.8415 18.1376 20.7126 18.3001 20.55C18.4626 20.3875 18.5915 20.1946 18.6794 19.9822C18.7674 19.7699 18.8126 19.5423 18.8125 19.3125Z" fill="#7EAADA"/>
<path d="M6.685 27.6249C6.30472 27.625 5.93101 27.5258 5.60075 27.3373C5.27049 27.1488 4.99512 26.8774 4.8018 26.5499C4.60849 26.2224 4.50393 25.8502 4.49844 25.4699C4.49295 25.0897 4.58672 24.7146 4.7705 24.3817L4.94139 24.0745C4.2542 23.3363 3.73507 22.4579 3.41968 21.4999H3.0625C2.48234 21.4999 1.92594 21.2694 1.5157 20.8592C1.10547 20.449 0.875 19.8926 0.875 19.3124C0.875 18.7323 1.10547 18.1759 1.5157 17.7656C1.92594 17.3554 2.48234 17.1249 3.0625 17.1249H3.41968C3.73521 16.1665 4.25471 15.2879 4.94239 14.5495L4.77063 14.2384C4.63147 13.9874 4.54333 13.7113 4.51128 13.426C4.47923 13.1408 4.5039 12.852 4.58387 12.5763C4.66385 12.3006 4.79754 12.0435 4.97727 11.8197C5.15699 11.5959 5.3792 11.4098 5.63111 11.2722C6.13953 10.9936 6.73757 10.9276 7.29452 11.0886C7.85147 11.2495 8.32205 11.6244 8.60344 12.1313L8.7752 12.4428C9.62523 12.2753 10.4998 12.2753 11.3498 12.4428L11.5211 12.1318C11.66 11.8798 11.8472 11.6577 12.072 11.4782C12.2969 11.2987 12.5549 11.1653 12.8313 11.0856C13.1077 11.0059 13.3972 10.9815 13.6831 11.0138C13.9689 11.0461 14.2456 11.1345 14.4973 11.2739C14.7486 11.4121 14.9701 11.5986 15.1491 11.8226C15.3282 12.0465 15.4613 12.3037 15.5409 12.5792C15.6204 12.8547 15.6448 13.1432 15.6127 13.4282C15.5805 13.7131 15.4925 13.9889 15.3535 14.2398L15.1826 14.5496C15.8703 15.2879 16.3898 16.1665 16.7053 17.1249H17.0625C17.6417 17.1249 18.1973 17.3543 18.6078 17.7628L18.6122 17.7672C18.9173 18.0735 19.1248 18.4634 19.2086 18.8876C19.2923 19.3118 19.2485 19.7513 19.0827 20.1506C18.917 20.5499 18.6366 20.8912 18.2771 21.1313C17.9175 21.3715 17.4949 21.4997 17.0625 21.4999H16.7053C16.3899 22.4579 15.8707 23.3363 15.1835 24.0745L15.3535 24.3808C15.6337 24.8889 15.7005 25.4876 15.5393 26.045C15.3781 26.6024 15.0021 27.073 14.4939 27.3531C13.9858 27.6333 13.3871 27.7001 12.8297 27.5389C12.2723 27.3777 11.8017 27.0016 11.5216 26.4935L11.3498 26.182C10.4998 26.3495 9.62523 26.3495 8.7752 26.182L8.60388 26.4931C8.41419 26.8358 8.13619 27.1216 7.79876 27.3206C7.46133 27.5197 7.07676 27.6247 6.685 27.6249ZM3.0625 17.9999C2.7144 17.9999 2.38056 18.1382 2.13442 18.3843C1.88828 18.6305 1.75 18.9643 1.75 19.3124C1.75 19.6605 1.88828 19.9944 2.13442 20.2405C2.38056 20.4866 2.7144 20.6249 3.0625 20.6249H3.745C3.84089 20.6249 3.93414 20.6563 4.01041 20.7145C4.08667 20.7726 4.14173 20.8542 4.1671 20.9467C4.45495 21.9885 5.01435 22.9351 5.78808 23.6898C5.85658 23.7568 5.90116 23.8445 5.91498 23.9394C5.92879 24.0342 5.91108 24.131 5.86456 24.2148L5.53643 24.8057C5.42707 25.0054 5.37153 25.2302 5.37525 25.4579C5.37898 25.6856 5.44184 25.9084 5.55767 26.1045C5.67351 26.3006 5.83833 26.4632 6.03597 26.5763C6.2336 26.6895 6.45726 26.7493 6.685 26.7499C6.92037 26.7498 7.15141 26.6867 7.35412 26.5671C7.55683 26.4474 7.7238 26.2757 7.83768 26.0697L8.16541 25.4754C8.21153 25.392 8.28365 25.3259 8.3708 25.2872C8.45795 25.2485 8.55535 25.2393 8.64819 25.2611C9.57717 25.4892 10.5476 25.4892 11.4765 25.2611C11.5694 25.2393 11.6668 25.2485 11.7539 25.2872C11.8411 25.3259 11.9132 25.392 11.9593 25.4754L12.2874 26.0702C12.4566 26.3746 12.7393 26.5997 13.0739 26.6963C13.4085 26.7928 13.7678 26.753 14.0731 26.5854C14.224 26.5028 14.3572 26.3911 14.4649 26.2568C14.5726 26.1226 14.6527 25.9684 14.7007 25.8031C14.7486 25.6378 14.7635 25.4647 14.7444 25.2936C14.7253 25.1226 14.6726 24.957 14.5893 24.8064L14.2607 24.2146C14.2142 24.1308 14.1965 24.0341 14.2103 23.9392C14.2241 23.8444 14.2687 23.7567 14.3372 23.6896C15.111 22.935 15.6704 21.9883 15.9582 20.9465C15.9836 20.8541 16.0386 20.7726 16.1148 20.7145C16.191 20.6564 16.2842 20.6249 16.38 20.6249H17.0625C17.4106 20.6249 17.7444 20.4866 17.9906 20.2405C18.2367 19.9944 18.375 19.6605 18.375 19.3124C18.375 18.9643 18.2367 18.6305 17.9906 18.3843C17.7444 18.1382 17.4106 17.9999 17.0625 17.9999H16.38C16.2841 18 16.1909 17.9685 16.1146 17.9104C16.0383 17.8522 15.9833 17.7707 15.9579 17.6782C15.67 16.6364 15.1106 15.6897 14.3369 14.9351C14.2686 14.8682 14.224 14.7808 14.21 14.6862C14.1961 14.5916 14.2135 14.495 14.2596 14.4113L14.5877 13.8163C14.6969 13.6167 14.7523 13.3922 14.7485 13.1648C14.7447 12.9374 14.6819 12.7149 14.5661 12.5191C14.4504 12.3233 14.2857 12.161 14.0883 12.0481C13.8908 11.9351 13.6674 11.8755 13.44 11.8749C13.2046 11.875 12.9736 11.9382 12.7709 12.0578C12.5682 12.1774 12.4012 12.3491 12.2873 12.5551L11.9596 13.1494C11.9135 13.2329 11.8414 13.299 11.7542 13.3377C11.6671 13.3764 11.5696 13.3855 11.4768 13.3638C10.5478 13.1356 9.57744 13.1356 8.64846 13.3638C8.55562 13.3855 8.45821 13.3764 8.37106 13.3377C8.28391 13.299 8.21179 13.2329 8.16568 13.1494L7.83755 12.5547C7.69679 12.2996 7.4753 12.0986 7.20786 11.9831C6.94043 11.8676 6.64221 11.8443 6.36005 11.9167C6.0779 11.9891 5.8278 12.1532 5.64905 12.3832C5.47029 12.6132 5.37302 12.8961 5.3725 13.1874C5.37208 13.4071 5.42844 13.6231 5.53613 13.8146L5.86508 14.4115C5.9112 14.4953 5.92861 14.5918 5.91465 14.6864C5.90069 14.781 5.85613 14.8684 5.78778 14.9353C5.01405 15.69 4.45465 16.6366 4.16679 17.6784C4.14139 17.7708 4.08637 17.8523 4.01017 17.9104C3.93397 17.9684 3.84081 17.9999 3.745 17.9999H3.0625ZM10.0625 22.3705C9.45785 22.3697 8.86702 22.1896 8.36469 21.853C7.86236 21.5165 7.47107 21.0386 7.24028 20.4797C7.00949 19.9208 6.94955 19.3061 7.06805 18.7131C7.18654 18.1202 7.47814 17.5757 7.906 17.1485C8.33386 16.7212 8.87877 16.4304 9.47187 16.3127C10.065 16.1951 10.6796 16.2559 11.2382 16.4875C11.7967 16.7191 12.2741 17.1111 12.6099 17.6139C12.9458 18.1167 13.125 18.7078 13.125 19.3124C13.1235 20.1238 12.8002 20.9014 12.2261 21.4747C11.6519 22.048 10.8739 22.3702 10.0625 22.3705ZM10.0625 17.1293C9.63091 17.1302 9.20925 17.2589 8.85081 17.4993C8.49238 17.7398 8.21324 18.081 8.04868 18.48C7.88411 18.879 7.8415 19.3178 7.92623 19.741C8.01096 20.1642 8.21923 20.5528 8.52472 20.8577C8.83021 21.1625 9.21921 21.37 9.64257 21.4539C10.0659 21.5378 10.5047 21.4943 10.9033 21.3289C11.302 21.1636 11.6427 20.8838 11.8824 20.5248C12.1221 20.1659 12.25 19.744 12.25 19.3124C12.2488 18.733 12.0178 18.1778 11.6077 17.7685C11.1976 17.3593 10.6419 17.1294 10.0625 17.1293Z" fill="#001833"/>
</svg>
