<svg width="24" height="24" viewBox="0 0 24 24" fill="none" xmlns="http://www.w3.org/2000/svg">
<g clip-path="url(#clip0_674_3845)">
<path d="M22.5 8.29504V4.20008C22.5063 3.69005 22.3101 3.19836 21.9544 2.8328C21.5987 2.46724 21.1125 2.25766 20.6025 2.25H4.89755C4.38754 2.25766 3.90139 2.46724 3.54568 2.8328C3.18998 3.19836 2.99375 3.69005 3.00002 4.20008V5.25H1.89755C1.38754 5.25766 0.901392 5.46724 0.545685 5.8328C0.189978 6.19836 -0.00625145 6.69005 2.39407e-05 7.20007V16.7999C-0.00625145 17.3099 0.189978 17.8016 0.545685 18.1672C0.901392 18.5328 1.38754 18.7423 1.89755 18.75H4.50002V19.7999C4.49392 20.3101 4.69041 20.802 5.04639 21.1675C5.40238 21.5331 5.88882 21.7426 6.39902 21.75H22.101C22.6112 21.7426 23.0977 21.5331 23.4537 21.1675C23.8096 20.802 24.0061 20.3101 24 19.7999V10.2001C24.0034 9.75941 23.8567 9.33072 23.5841 8.98449C23.3115 8.63826 22.9292 8.39512 22.5 8.29504ZM18.4389 20.25H10.0612C9.90089 19.2305 9.42138 18.2881 8.69164 17.5584C7.9619 16.8286 7.01951 16.3491 6.00002 16.1888V13.8112C7.01951 13.6509 7.9619 13.1714 8.69164 12.4416C9.42138 11.7119 9.90089 10.7695 10.0612 9.75H18.4389C18.5992 10.7695 19.0787 11.7119 19.8084 12.4416C20.5382 13.1714 21.4805 13.6509 22.5 13.8112V16.1888C21.4805 16.3491 20.5382 16.8286 19.8084 17.5584C19.0787 18.2881 18.5992 19.2305 18.4389 20.25ZM6.00002 12.2881V10.2001C5.99379 10.0876 6.03221 9.97723 6.10693 9.89295C6.18165 9.80866 6.28662 9.75729 6.39902 9.75H8.53813C8.39582 10.3686 8.08233 10.9346 7.6335 11.3835C7.18467 11.8323 6.61861 12.1458 6.00002 12.2881ZM22.101 9.75C22.2134 9.75729 22.3184 9.80866 22.3931 9.89295C22.4678 9.97723 22.5063 10.0876 22.5 10.2001V12.2881C21.8814 12.1458 21.3154 11.8323 20.8666 11.3835C20.4177 10.9346 20.1042 10.3686 19.9619 9.75H22.101ZM1.89755 17.25C1.78536 17.2425 1.68068 17.191 1.60624 17.1067C1.53181 17.0224 1.49364 16.9122 1.50002 16.7999V7.20007C1.49364 7.08782 1.53181 6.97757 1.60624 6.8933C1.68068 6.80903 1.78536 6.75753 1.89755 6.75H8.25002C8.44705 6.74714 8.63505 6.66686 8.77336 6.52652C8.91168 6.38617 8.98922 6.19703 8.98922 5.99998C8.98921 5.80293 8.91167 5.6138 8.77334 5.47346C8.63501 5.33312 8.44702 5.25285 8.24999 5.25H4.50002V4.20008C4.49364 4.08782 4.53181 3.97757 4.60624 3.8933C4.68068 3.80903 4.78536 3.75753 4.89755 3.75H20.6025C20.7147 3.75753 20.8194 3.80903 20.8938 3.8933C20.9682 3.97757 21.0064 4.08782 21 4.20008V8.25H19.5V7.20007C19.5063 6.69005 19.3101 6.19836 18.9544 5.8328C18.5987 5.46724 18.1125 5.25766 17.6025 5.25H13.5C13.3011 5.25 13.1103 5.32902 12.9697 5.46967C12.829 5.61032 12.75 5.80109 12.75 6C12.75 6.19891 12.829 6.38968 12.9697 6.53033C13.1103 6.67098 13.3011 6.75 13.5 6.75H17.6025C17.7147 6.75753 17.8194 6.80903 17.8938 6.8933C17.9682 6.97757 18.0064 7.08782 18 7.20007V8.25H6.39902C5.88882 8.25744 5.40238 8.4669 5.04639 8.83247C4.69041 9.19803 4.49392 9.68985 4.50002 10.2001V17.25H1.89755ZM6.00002 19.7999V17.7119C6.6186 17.8542 7.18466 18.1677 7.63349 18.6165C8.08231 19.0654 8.3958 19.6314 8.53812 20.25H6.39902C6.28662 20.2427 6.18165 20.1913 6.10693 20.107C6.03221 20.0228 5.99379 19.9124 6.00002 19.7999ZM22.101 20.25H19.9619C20.1042 19.6314 20.4177 19.0654 20.8666 18.6165C21.3154 18.1677 21.8814 17.8542 22.5 17.7119V19.7999C22.5063 19.9124 22.4678 20.0228 22.3931 20.107C22.3184 20.1913 22.2134 20.2427 22.101 20.25Z" fill="#194C81"/>
<path d="M14.25 11.625C12.5958 11.625 11.25 13.1391 11.25 15C11.4057 19.4733 17.0947 19.4722 17.25 15C17.25 13.1391 15.9041 11.625 14.25 11.625ZM14.25 16.875C12.2702 16.8042 12.2708 13.1953 14.25 13.125C16.2297 13.1958 16.2291 16.8047 14.25 16.875ZM10.875 6.75C11.0719 6.74707 11.2599 6.66677 11.3981 6.52643C11.5364 6.38609 11.6139 6.19699 11.6139 5.99998C11.6139 5.80298 11.5364 5.61388 11.3981 5.47355C11.2598 5.33322 11.0719 5.25292 10.8749 5.25C10.6779 5.25293 10.49 5.33323 10.3518 5.47357C10.2135 5.61391 10.136 5.80301 10.136 6.00002C10.136 6.19702 10.2135 6.38612 10.3518 6.52645C10.49 6.66678 10.678 6.74708 10.875 6.75Z" fill="#194C81"/>
</g>
<defs>
<clipPath id="clip0_674_3845">
<rect width="24" height="24" fill="white"/>
</clipPath>
</defs>
</svg>
