<svg width="25" height="24" viewBox="0 0 25 24" fill="none" xmlns="http://www.w3.org/2000/svg">
<path d="M14.625 2H6.625C6.09457 2 5.58586 2.21071 5.21079 2.58579C4.83571 2.96086 4.625 3.46957 4.625 4V20C4.625 20.5304 4.83571 21.0391 5.21079 21.4142C5.58586 21.7893 6.09457 22 6.625 22H18.625C19.1554 22 19.6641 21.7893 20.0392 21.4142C20.4143 21.0391 20.625 20.5304 20.625 20V8L14.625 2Z" stroke="#77797E" stroke-width="2" stroke-linecap="round" stroke-linejoin="round"/>
<path d="M14.625 2V8H20.625" stroke="#77797E" stroke-width="2" stroke-linecap="round" stroke-linejoin="round"/>
<path d="M16.625 13H8.625" stroke="#77797E" stroke-width="2" stroke-linecap="round" stroke-linejoin="round"/>
<path d="M16.625 17H8.625" stroke="#77797E" stroke-width="2" stroke-linecap="round" stroke-linejoin="round"/>
<path d="M10.625 9H9.625H8.625" stroke="#77797E" stroke-width="2" stroke-linecap="round" stroke-linejoin="round"/>
</svg>
