<svg width="25" height="24" viewBox="0 0 25 24" fill="none" xmlns="http://www.w3.org/2000/svg">
<path d="M12.875 13C13.4273 13 13.875 12.5523 13.875 12C13.875 11.4477 13.4273 11 12.875 11C12.3227 11 11.875 11.4477 11.875 12C11.875 12.5523 12.3227 13 12.875 13Z" stroke="#77797E" stroke-width="2" stroke-linecap="round" stroke-linejoin="round"/>
<path d="M19.875 13C20.4273 13 20.875 12.5523 20.875 12C20.875 11.4477 20.4273 11 19.875 11C19.3227 11 18.875 11.4477 18.875 12C18.875 12.5523 19.3227 13 19.875 13Z" stroke="#77797E" stroke-width="2" stroke-linecap="round" stroke-linejoin="round"/>
<path d="M5.875 13C6.42728 13 6.875 12.5523 6.875 12C6.875 11.4477 6.42728 11 5.875 11C5.32272 11 4.875 11.4477 4.875 12C4.875 12.5523 5.32272 13 5.875 13Z" stroke="#77797E" stroke-width="2" stroke-linecap="round" stroke-linejoin="round"/>
</svg>
