<svg width="216" height="199" viewBox="0 0 216 199" fill="none" xmlns="http://www.w3.org/2000/svg">
<g clip-path="url(#clip0_208_8246)">
<path d="M174.327 50.4809H117.788L109.712 12.7886H147.404L174.327 50.4809Z" fill="#A3D4FF"/>
<path d="M146.058 39.7117H115.473L109.712 12.7886H136.635L148.454 35.7809C149.369 37.5578 148.077 39.7117 146.058 39.7117Z" fill="white"/>
<path d="M174.327 52.5001H117.788C116.846 52.5001 116.012 51.827 115.823 50.9116L107.746 13.2193C107.612 12.627 107.746 12.0077 108.15 11.5231C108.527 11.0385 109.119 10.7693 109.712 10.7693H147.404C148.05 10.7693 148.669 11.0924 149.046 11.6039L175.969 49.2962C176.4 49.9154 176.481 50.7231 176.131 51.3962C175.781 52.0693 175.081 52.5001 174.327 52.5001ZM119.431 48.4616H170.423L146.381 14.8077H112.215L119.431 48.4616Z" fill="#2B5185"/>
<path d="M58.5578 50.4809H2.01929L28.9424 12.7886H66.6347L58.5578 50.4809Z" fill="#A3D4FF"/>
<path d="M43.2385 39.7117H9.71924L28.9423 12.7886H55.4885L45.7692 37.9886C45.3654 39.0386 44.3692 39.7117 43.2654 39.7117H43.2385Z" fill="white"/>
<path d="M58.5577 52.5H2.01926C1.26541 52.5 0.565415 52.0692 0.215415 51.3961C-0.134585 50.7231 -0.0807388 49.9154 0.376954 49.2961L27.3 11.6308C27.677 11.0923 28.2962 10.7961 28.9423 10.7961H66.6346C67.2539 10.7961 67.8193 11.0654 68.1962 11.55C68.5731 12.0346 68.7346 12.6538 68.6 13.2461L60.5231 50.9384C60.3346 51.8808 59.5 52.5269 58.5577 52.5269V52.5ZM5.95003 48.4615H56.9423L64.1577 14.8077H29.9923L5.95003 48.4615Z" fill="#2B5185"/>
<path d="M117.789 50.4809H58.5577L66.6347 12.7886H109.712L117.789 50.4809Z" fill="#A3D4FF"/>
<path d="M98.6462 39.7117H60.8462L66.6077 12.7886H98.9154L101.312 36.7501C101.473 38.3386 100.235 39.7117 98.6193 39.7117H98.6462Z" fill="white"/>
<path d="M117.788 52.5001H58.5577C57.9384 52.5001 57.3731 52.2308 56.9961 51.7462C56.6192 51.2616 56.4577 50.6424 56.5923 50.0501L64.6692 12.3577C64.8577 11.4154 65.6923 10.7693 66.6346 10.7693H109.712C110.654 10.7693 111.488 11.4424 111.677 12.3577L119.754 50.0501C119.888 50.6424 119.754 51.2616 119.35 51.7462C118.946 52.2308 118.381 52.5001 117.788 52.5001ZM61.0615 48.4616H115.285L108.069 14.8077H68.25L61.0346 48.4616H61.0615Z" fill="#2B5185"/>
<path d="M117.789 50.4807H58.5577V185.096H117.789V50.4807Z" fill="#A3D4FF"/>
<path d="M117.788 187.115H58.5577C57.4538 187.115 56.5385 186.2 56.5385 185.096V50.4807C56.5385 49.3768 57.4538 48.4614 58.5577 48.4614H117.788C118.892 48.4614 119.808 49.3768 119.808 50.4807V185.096C119.808 186.2 118.892 187.115 117.788 187.115ZM60.5769 183.077H115.769V52.4999H60.5769V183.077Z" fill="#2B5185"/>
<path d="M101.635 66.6345H74.7115V120.481H101.635V66.6345Z" fill="white"/>
<path d="M101.635 122.5H74.7115C73.6076 122.5 72.6923 121.585 72.6923 120.481V66.6347C72.6923 65.5309 73.6076 64.6155 74.7115 64.6155H101.635C102.738 64.6155 103.654 65.5309 103.654 66.6347V120.481C103.654 121.585 102.738 122.5 101.635 122.5ZM76.7307 118.462H99.6153V68.6539H76.7307V118.462Z" fill="#2B5185"/>
<path d="M92.2115 95.577H84.1346C83.0307 95.577 82.1154 94.6617 82.1154 93.5578C82.1154 92.454 83.0307 91.5386 84.1346 91.5386H92.2115C93.3154 91.5386 94.2307 92.454 94.2307 93.5578C94.2307 94.6617 93.3154 95.577 92.2115 95.577Z" fill="#2B5185"/>
<path d="M92.2115 83.4616H84.1346C83.0307 83.4616 82.1154 82.5462 82.1154 81.4423C82.1154 80.3385 83.0307 79.4231 84.1346 79.4231H92.2115C93.3154 79.4231 94.2307 80.3385 94.2307 81.4423C94.2307 82.5462 93.3154 83.4616 92.2115 83.4616Z" fill="#2B5185"/>
<path d="M92.2115 107.692H84.1346C83.0307 107.692 82.1154 106.777 82.1154 105.673C82.1154 104.569 83.0307 103.654 84.1346 103.654H92.2115C93.3154 103.654 94.2307 104.569 94.2307 105.673C94.2307 106.777 93.3154 107.692 92.2115 107.692Z" fill="#2B5185"/>
<path d="M58.5578 50.4807H2.01929V185.096H58.5578V50.4807Z" fill="#A3D4FF"/>
<path d="M2.01929 50.4807H42.4039V158.173C42.4039 164.123 37.5847 168.942 31.6347 168.942H2.01929V50.4807Z" fill="white"/>
<path d="M58.5577 187.115H2.01923C0.915385 187.115 0 186.227 0 185.096V50.4807C0 49.3768 0.915385 48.4614 2.01923 48.4614H58.5577C59.6615 48.4614 60.5769 49.3768 60.5769 50.4807V185.096C60.5769 186.2 59.6615 187.115 58.5577 187.115ZM4.03846 183.077H56.5385V52.4999H4.03846V183.077Z" fill="#2B5185"/>
<path d="M42.4039 66.6345H18.1731V120.481H42.4039V66.6345Z" fill="white"/>
<path d="M42.4038 122.5H18.173C17.0692 122.5 16.1538 121.585 16.1538 120.481V66.6347C16.1538 65.5309 17.0692 64.6155 18.173 64.6155H42.4038C43.5077 64.6155 44.423 65.5309 44.423 66.6347V120.481C44.423 121.585 43.5077 122.5 42.4038 122.5ZM20.1923 118.462H40.3846V68.6539H20.1923V118.462Z" fill="#2B5185"/>
<path d="M30.2885 168.942C36.9796 168.942 42.4039 163.518 42.4039 156.827C42.4039 150.136 36.9796 144.711 30.2885 144.711C23.5973 144.711 18.1731 150.136 18.1731 156.827C18.1731 163.518 23.5973 168.942 30.2885 168.942Z" fill="white"/>
<path d="M33.6538 95.577H26.923C25.8192 95.577 24.9038 94.6617 24.9038 93.5578C24.9038 92.454 25.8192 91.5386 26.923 91.5386H33.6538C34.7577 91.5386 35.673 92.454 35.673 93.5578C35.673 94.6617 34.7577 95.577 33.6538 95.577Z" fill="#2B5185"/>
<path d="M33.6538 83.4616H26.923C25.8192 83.4616 24.9038 82.5462 24.9038 81.4423C24.9038 80.3385 25.8192 79.4231 26.923 79.4231H33.6538C34.7577 79.4231 35.673 80.3385 35.673 81.4423C35.673 82.5462 34.7577 83.4616 33.6538 83.4616Z" fill="#2B5185"/>
<path d="M33.6538 107.692H26.923C25.8192 107.692 24.9038 106.777 24.9038 105.673C24.9038 104.569 25.8192 103.654 26.923 103.654H33.6538C34.7577 103.654 35.673 104.569 35.673 105.673C35.673 106.777 34.7577 107.692 33.6538 107.692Z" fill="#2B5185"/>
<path d="M174.327 50.4807H117.788V185.096H174.327V50.4807Z" fill="#A3D4FF"/>
<path d="M117.788 50.4807H158.173V158.173C158.173 164.123 153.354 168.942 147.404 168.942H117.788V50.4807Z" fill="white"/>
<path d="M174.327 187.115H117.789C116.685 187.115 115.769 186.2 115.769 185.096V50.4807C115.769 49.3768 116.685 48.4614 117.789 48.4614H174.327C175.431 48.4614 176.346 49.3768 176.346 50.4807V185.096C176.346 186.2 175.431 187.115 174.327 187.115ZM119.808 183.077H172.308V52.4999H119.808V183.077Z" fill="#2B5185"/>
<path d="M158.173 66.6345H133.942V120.481H158.173V66.6345Z" fill="white"/>
<path d="M158.173 122.5H133.942C132.838 122.5 131.923 121.585 131.923 120.481V66.6347C131.923 65.5309 132.838 64.6155 133.942 64.6155H158.173C159.277 64.6155 160.192 65.5309 160.192 66.6347V120.481C160.192 121.585 159.277 122.5 158.173 122.5ZM135.962 118.462H156.154V68.6539H135.962V118.462Z" fill="#2B5185"/>
<path d="M149.423 95.577H142.692C141.588 95.577 140.673 94.6617 140.673 93.5578C140.673 92.454 141.588 91.5386 142.692 91.5386H149.423C150.527 91.5386 151.442 92.454 151.442 93.5578C151.442 94.6617 150.527 95.577 149.423 95.577Z" fill="#2B5185"/>
<path d="M149.423 83.4616H142.692C141.588 83.4616 140.673 82.5462 140.673 81.4423C140.673 80.3385 141.588 79.4231 142.692 79.4231H149.423C150.527 79.4231 151.442 80.3385 151.442 81.4423C151.442 82.5462 150.527 83.4616 149.423 83.4616Z" fill="#2B5185"/>
<path d="M149.423 107.692H142.692C141.588 107.692 140.673 106.777 140.673 105.673C140.673 104.569 141.588 103.654 142.692 103.654H149.423C150.527 103.654 151.442 104.569 151.442 105.673C151.442 106.777 150.527 107.692 149.423 107.692Z" fill="#2B5185"/>
<path d="M118.542 4.03846H89.4924C88.3885 4.03846 87.4731 3.12308 87.4731 2.01923C87.4731 0.915385 88.3885 0 89.4924 0H118.542C119.646 0 120.562 0.915385 120.562 2.01923C120.562 3.12308 119.646 4.03846 118.542 4.03846Z" fill="#2B5185"/>
<path d="M135.288 4.03846H129.338C128.235 4.03846 127.319 3.12308 127.319 2.01923C127.319 0.915385 128.235 0 129.338 0H135.288C136.392 0 137.308 0.915385 137.308 2.01923C137.308 3.12308 136.392 4.03846 135.288 4.03846Z" fill="#2B5185"/>
<path d="M70.1077 197.885H30.2885C29.1847 197.885 28.2693 196.969 28.2693 195.865C28.2693 194.762 29.1847 193.846 30.2885 193.846H70.1077C71.2116 193.846 72.127 194.762 72.127 195.865C72.127 196.969 71.2116 197.885 70.1077 197.885Z" fill="#2B5185"/>
<path d="M86.8269 197.885H80.8769C79.7731 197.885 78.8577 196.969 78.8577 195.865C78.8577 194.762 79.7731 193.846 80.8769 193.846H86.8269C87.9307 193.846 88.8461 194.762 88.8461 195.865C88.8461 196.969 87.9307 197.885 86.8269 197.885Z" fill="#2B5185"/>
<path d="M74 137C74 134.791 75.7909 133 78 133H99C101.209 133 103 134.791 103 137V182H74V137Z" fill="#A3D4FF" stroke="#194C81" stroke-width="2"/>
<path d="M78 141C78 138.791 79.7909 137 82 137H102V181H78V141Z" fill="white"/>
<rect x="96" y="156" width="5" height="5" rx="2.5" fill="#194C81"/>
</g>
<path d="M161.5 197C177.24 197 190 184.688 190 169.5C190 154.312 177.24 142 161.5 142C145.76 142 133 154.312 133 169.5C133 184.688 145.76 197 161.5 197Z" fill="white"/>
<path d="M177.628 146C181.422 150.755 183.705 156.71 183.705 163.208C183.705 178.656 170.93 191.176 155.166 191.176C149.156 191.176 143.6 189.35 139 186.241C144.221 192.788 152.329 197 161.461 197C177.225 197 190 184.48 190 169.032C190 159.474 185.098 151.051 177.628 146Z" fill="#94C9FF"/>
<path d="M162.5 199C146.229 199 133 185.771 133 169.5C133 153.229 146.229 140 162.5 140C178.771 140 192 153.229 192 169.5C192 185.771 178.771 199 162.5 199ZM162.5 142.493C147.609 142.493 135.493 154.609 135.493 169.5C135.493 184.391 147.609 196.507 162.5 196.507C177.391 196.507 189.507 184.391 189.507 169.5C189.507 154.609 177.391 142.493 162.5 142.493Z" fill="#223F73"/>
<path d="M170.96 156.48L166.54 152.06L158.08 160.49L153.38 155.8L148.96 160.21L158.08 169.33L170.96 156.48Z" fill="white"/>
<path d="M157.762 177.568L147.175 167.069L144 170.217L158.907 185L180 164.148L176.825 161L160.085 177.568C159.447 178.201 158.416 178.201 157.778 177.568H157.762Z" fill="#94C9FF"/>
<path d="M158.773 187C158.45 187 158.127 186.884 157.872 186.637L142.37 171.589C141.877 171.11 141.877 170.317 142.37 169.838L149.891 162.537C150.385 162.058 151.201 162.058 151.695 162.537L158.79 169.425L172.301 156.359C172.794 155.88 173.611 155.88 174.105 156.359L181.626 163.66C181.864 163.891 182 164.205 182 164.536C182 164.866 181.864 165.18 181.626 165.411L159.692 186.637C159.437 186.884 159.114 187 158.79 187H158.773ZM145.076 170.713L158.773 184.01L178.886 164.519L173.169 158.969L159.658 172.035C159.165 172.514 158.348 172.514 157.855 172.035L150.759 165.163L145.042 170.713H145.076Z" fill="#223F73"/>
<path d="M202 171C199.236 171 197 168.764 197 166C197 163.236 199.236 161 202 161C204.764 161 207 163.236 207 166C207 168.764 204.764 171 202 171ZM202 163.727C200.745 163.727 199.727 164.745 199.727 166C199.727 167.255 200.745 168.273 202 168.273C203.255 168.273 204.273 167.255 204.273 166C204.273 164.745 203.255 163.727 202 163.727Z" fill="#223F73"/>
<path d="M123.5 163C121.013 163 119 160.987 119 158.5C119 156.013 121.013 154 123.5 154C125.987 154 128 156.013 128 158.5C128 160.987 125.987 163 123.5 163ZM123.5 156.455C122.371 156.455 121.455 157.371 121.455 158.5C121.455 159.629 122.371 160.545 123.5 160.545C124.629 160.545 125.545 159.629 125.545 158.5C125.545 157.371 124.629 156.455 123.5 156.455Z" fill="#223F73"/>
<path d="M129.76 163.7C130.865 163.7 131.76 162.805 131.76 161.7C131.76 160.595 130.865 159.7 129.76 159.7C128.655 159.7 127.76 160.595 127.76 161.7C127.76 162.805 128.655 163.7 129.76 163.7Z" fill="white"/>
<path d="M112.516 177C110.029 177 108 174.987 108 172.5C108 170.013 110.013 168 112.5 168C114.987 168 117 170.013 117 172.5C117 174.987 114.987 177 112.5 177H112.516ZM112.516 170.455C111.387 170.455 110.471 171.371 110.471 172.5C110.471 173.629 111.387 174.545 112.516 174.545C113.645 174.545 114.562 173.629 114.562 172.5C114.562 171.371 113.645 170.455 112.516 170.455Z" fill="#223F73"/>
<path d="M211.5 185C209.013 185 207 182.987 207 180.5C207 178.013 209.013 176 211.5 176C213.987 176 216 178.013 216 180.5C216 182.987 213.987 185 211.5 185ZM211.5 178.455C210.371 178.455 209.455 179.371 209.455 180.5C209.455 181.629 210.371 182.545 211.5 182.545C212.629 182.545 213.545 181.629 213.545 180.5C213.545 179.371 212.629 178.455 211.5 178.455Z" fill="#223F73"/>
<defs>
<clipPath id="clip0_208_8246">
<rect width="176.346" height="197.885" fill="white"/>
</clipPath>
</defs>
</svg>
