<svg width="210" height="226" viewBox="0 0 210 226" fill="none" xmlns="http://www.w3.org/2000/svg">
<path d="M64.8595 65.7832L52.2916 62.4814H23.084L10.516 65.7832C5.73894 67.0334 2.43665 71.361 2.43665 76.2656V108.161H72.971V76.2656C72.971 71.3289 69.6366 67.0334 64.8595 65.7832Z" fill="white"/>
<path d="M72.9389 76.2977C72.9389 71.3611 69.6046 67.0655 64.8275 65.8153L63.3206 65.4307C63.3206 90.4665 11.0611 93.0951 2.4046 108.194H72.9389V76.2977Z" fill="#94C9FF"/>
<path d="M72.9389 110.566H2.40458C1.09008 110.566 0 109.508 0 108.162V76.2657C0 70.2712 4.07176 64.9819 9.87481 63.4753L22.4427 60.1735C22.6351 60.1094 22.8595 60.1094 23.0519 60.1094H52.2595C52.4519 60.1094 52.6763 60.1094 52.8687 60.1735L65.4366 63.4753C71.2718 65.014 75.3114 70.2712 75.3114 76.2977V108.194C75.3114 109.508 74.2214 110.598 72.9069 110.598L72.9389 110.566ZM4.80916 105.757H70.5343V76.2657C70.5343 72.4189 67.9374 69.0851 64.2504 68.0914L51.971 64.8857H23.3725L11.0931 68.0914C7.37405 69.053 4.80916 72.4189 4.80916 76.2657V105.757Z" fill="#223F73"/>
<path d="M37.6718 72.7073C37.6718 72.7073 52.1954 68.4117 52.2596 62.5134C49.1817 60.9426 46.8733 58.0576 46.2321 54.6276C46.1359 54.1147 46.0718 50.9091 46.0076 50.4282H29.3038C29.2397 51.0052 29.1435 54.307 29.0473 54.884C28.3741 58.282 26.0977 61.0388 23.084 62.5134C23.2122 68.3797 37.6718 72.7073 37.6718 72.7073Z" fill="white"/>
<path d="M52.2916 62.4814C49.2137 60.9107 46.9053 58.0256 46.2641 54.5956C46.1679 54.0827 46.1038 50.8771 46.0397 50.3962L38.0244 51.8388C38.1206 52.544 38.2168 57.1922 38.345 57.9294C39.2427 62.7058 42.3206 66.6808 46.4565 69.0209C49.5343 67.2898 52.2595 65.0459 52.2916 62.5135V62.4814Z" fill="#94C9FF"/>
<path d="M37.6717 75.1116C37.4473 75.1116 37.2229 75.0796 36.9985 75.0155C34.3053 74.2141 20.8397 69.8224 20.6794 62.5456C20.6794 61.616 21.1924 60.7505 22.0259 60.3337C24.4946 59.1156 26.1939 56.9678 26.7069 54.4033C26.771 54.0507 26.803 52.9288 26.8351 51.9671C26.8672 51.1336 26.8992 50.3963 26.9313 50.1399C27.0916 48.9217 28.0855 48.0242 29.3038 48.0242H46.0076C47.2259 48.0242 48.2519 48.9538 48.4122 50.1399C48.4122 50.3643 48.4763 51.1016 48.5084 51.935C48.5405 52.8326 48.5725 53.8905 48.6366 54.2431C49.1176 56.7755 50.913 59.1156 53.3817 60.3979C54.1832 60.8146 54.6962 61.648 54.6962 62.5777C54.5679 69.8865 41.0702 74.2461 38.3771 75.0475C38.1527 75.1116 37.9282 75.1437 37.7038 75.1437L37.6717 75.1116ZM25.9053 63.6035C27.4122 65.8474 32.6061 68.5722 37.6717 70.175C42.7695 68.5722 47.9634 65.8153 49.4702 63.5714C46.5527 61.5198 44.5328 58.4424 43.8916 55.0124C43.8275 54.6598 43.7954 54.1148 43.7313 52.7685H31.5801C31.516 54.1469 31.4519 54.8521 31.3878 55.2689C30.7145 58.6668 28.7588 61.5839 25.9053 63.5714V63.6035Z" fill="#223F73"/>
<path d="M54.632 36.0352C54.632 24.8155 47.0336 18.4043 37.6717 18.4043C28.3099 18.4043 20.7114 24.8155 20.7114 36.0352C20.7114 47.2549 28.3099 56.3909 37.6717 56.3909C47.0336 56.3909 54.632 47.2869 54.632 36.0352Z" fill="white"/>
<path d="M41.7435 18.853C43.058 21.3534 43.7955 24.3987 43.7955 27.8929C43.7955 39.1125 36.197 48.2485 26.8351 48.2485C25.8412 48.2485 24.8794 48.1203 23.9496 47.928C27.0275 53.057 32.029 56.3908 37.7038 56.3908C47.0657 56.3908 54.6642 47.2869 54.6642 36.0351C54.6642 26.4824 49.1817 20.4558 41.7756 18.853H41.7435Z" fill="#94C9FF"/>
<path d="M37.6718 58.795C26.9954 58.795 18.3069 48.6011 18.3069 36.0351C18.3069 24.2384 26.2901 16 37.6718 16C49.0534 16 57.0367 24.2384 57.0367 36.0351C57.0367 48.5691 48.3481 58.795 37.6718 58.795ZM37.6718 20.8084C28.9832 20.8084 23.116 26.9312 23.116 36.0351C23.116 45.9405 29.6565 53.9866 37.6718 53.9866C45.687 53.9866 52.2275 45.9405 52.2275 36.0351C52.2275 25.5207 44.9176 20.8084 37.6718 20.8084Z" fill="#223F73"/>
<path d="M37.6717 75.1116C37.0305 75.1116 36.3893 74.8551 35.9404 74.4063C35.5236 73.9576 35.2672 73.3485 35.2672 72.7074C35.2672 72.0662 35.4916 71.4572 35.9725 71.0084C36.8381 70.1108 38.4412 70.1108 39.371 71.0084C39.8198 71.4572 40.0442 72.0983 40.0442 72.7074C40.0442 73.3485 39.7878 73.9576 39.371 74.4063C38.8901 74.8551 38.2809 75.1116 37.6717 75.1116Z" fill="#223F73"/>
<path d="M35.2672 96.3327C35.2672 95.0184 36.3572 93.9606 37.7038 93.9606C39.0183 93.9606 40.0763 95.0184 40.0763 96.3327C40.0763 97.6791 39.0183 98.7369 37.7038 98.7369C36.3572 98.7369 35.2672 97.6791 35.2672 96.3327ZM35.2672 84.536C35.2672 83.1897 36.3572 82.1318 37.7038 82.1318C39.0183 82.1318 40.0763 83.1897 40.0763 84.536C40.0763 85.8504 39.0183 86.9403 37.7038 86.9403C36.3572 86.9403 35.2672 85.8504 35.2672 84.536Z" fill="#223F73"/>
<path d="M37.6717 110.566C37.0305 110.566 36.4214 110.309 35.9725 109.893C35.4916 109.412 35.2672 108.803 35.2672 108.161C35.2672 107.52 35.4916 106.911 35.9404 106.462C36.8381 105.565 38.4733 105.565 39.371 106.462C39.8198 106.911 40.0763 107.552 40.0763 108.161C40.0763 108.803 39.8198 109.412 39.371 109.86C38.8901 110.309 38.2809 110.566 37.6717 110.566Z" fill="#223F73"/>
<path d="M18.4351 110.566C17.1206 110.566 16.0305 109.476 16.0305 108.161V85.7221C16.0305 84.4078 17.1206 83.3179 18.4351 83.3179C19.7496 83.3179 20.8397 84.4078 20.8397 85.7221V108.161C20.8397 109.476 19.7496 110.566 18.4351 110.566Z" fill="#223F73"/>
<path d="M56.9084 110.566C55.5939 110.566 54.5038 109.476 54.5038 108.161V85.7221C54.5038 84.4078 55.5939 83.3179 56.9084 83.3179C58.2229 83.3179 59.313 84.4078 59.313 85.7221V108.161C59.313 109.476 58.2229 110.566 56.9084 110.566Z" fill="#223F73"/>
<path d="M199.516 181.218L186.948 177.916H157.74L145.173 181.218C140.395 182.468 137.093 186.795 137.093 191.7V223.596H207.628V191.7C207.628 186.763 204.293 182.468 199.516 181.218Z" fill="white"/>
<path d="M202.017 182.275C196.695 190.193 187.782 196.765 176.721 199.906C161.395 204.266 146.166 200.9 137.061 192.405V223.596H207.595V191.7C207.595 187.693 205.383 184.135 202.017 182.275Z" fill="#94C9FF"/>
<path d="M207.595 226H137.061C135.747 226 134.656 224.91 134.656 223.596V191.7C134.656 185.673 138.728 180.416 144.531 178.877L157.099 175.576C157.292 175.511 157.516 175.511 157.708 175.511H186.916C187.108 175.511 187.333 175.511 187.525 175.576L200.093 178.877C205.928 180.416 209.968 185.673 209.968 191.7V223.596C209.968 224.91 208.878 226 207.563 226H207.595ZM139.466 221.192H205.191V191.7C205.191 187.853 202.594 184.519 198.907 183.526L186.627 180.32H158.029L145.75 183.526C142.031 184.487 139.466 187.853 139.466 191.7V221.192Z" fill="#223F73"/>
<path d="M172.328 195.162C172.328 195.162 186.852 183.814 186.916 177.916C183.838 176.345 181.53 173.46 180.889 169.998C180.792 169.485 180.728 166.279 180.664 165.799H163.96C163.896 166.376 163.8 169.677 163.704 170.254C163.031 173.652 160.754 176.409 157.74 177.884C157.869 183.75 172.328 195.13 172.328 195.13V195.162Z" fill="white"/>
<path d="M182.812 185.321C185.121 182.66 186.916 179.935 186.948 177.884C183.87 176.313 181.562 173.428 180.921 169.966C180.824 169.453 180.76 166.247 180.696 165.766H172.745C172.841 167.241 172.937 171.601 173.098 172.338C174.156 177.98 177.875 182.66 182.844 185.289L182.812 185.321Z" fill="#94C9FF"/>
<path d="M172.328 197.566C171.815 197.566 171.27 197.406 170.853 197.053C168.289 195.034 155.496 184.648 155.336 177.948C155.336 177.018 155.849 176.153 156.682 175.736C159.151 174.518 160.85 172.37 161.363 169.773C161.427 169.421 161.46 168.299 161.492 167.337C161.524 166.504 161.556 165.766 161.588 165.51C161.748 164.292 162.742 163.394 163.96 163.394H180.664C181.882 163.394 182.908 164.324 183.069 165.51C183.069 165.734 183.133 166.472 183.165 167.305C183.197 168.203 183.229 169.229 183.293 169.613C183.774 172.178 185.569 174.486 188.038 175.768C188.84 176.185 189.353 177.018 189.353 177.948C189.256 184.648 176.4 195.034 173.835 197.053C173.386 197.406 172.873 197.566 172.36 197.566H172.328ZM160.466 179.102C161.812 182.243 167.07 187.693 172.328 192.085C177.65 187.725 182.94 182.211 184.223 179.102C181.273 177.05 179.189 173.941 178.516 170.479C178.452 170.126 178.42 169.581 178.356 168.235H166.205C166.14 169.613 166.076 170.318 166.012 170.735C165.339 174.165 163.319 177.146 160.402 179.134L160.466 179.102Z" fill="#223F73"/>
<path d="M189.289 151.469C189.289 140.25 181.69 133.838 172.328 133.838C162.966 133.838 155.368 140.25 155.368 151.469C155.368 162.689 162.966 171.825 172.328 171.825C181.69 171.825 189.289 162.721 189.289 151.469Z" fill="white"/>
<path d="M176.4 134.255C177.714 136.756 178.452 139.801 178.452 143.295C178.452 154.515 170.853 163.651 161.492 163.651C160.498 163.651 159.536 163.522 158.606 163.33C161.684 168.459 166.685 171.793 172.36 171.793C181.722 171.793 189.321 162.689 189.321 151.437C189.321 141.884 183.838 135.858 176.432 134.255H176.4Z" fill="#94C9FF"/>
<path d="M172.328 174.197C161.652 174.197 152.963 164.003 152.963 151.437C152.963 139.641 160.915 131.402 172.328 131.402C183.742 131.402 191.693 139.641 191.693 151.437C191.693 163.971 183.005 174.197 172.328 174.197ZM172.328 136.211C165.082 136.211 157.773 140.923 157.773 151.437C157.773 161.343 164.313 169.389 172.328 169.389C180.344 169.389 186.884 161.343 186.884 151.437C186.884 142.333 181.049 136.211 172.328 136.211Z" fill="#223F73"/>
<path d="M153.092 226C151.777 226 150.687 224.91 150.687 223.596V201.156C150.687 199.842 151.777 198.752 153.092 198.752C154.406 198.752 155.496 199.842 155.496 201.156V223.596C155.496 224.91 154.406 226 153.092 226Z" fill="#223F73"/>
<path d="M191.565 226C190.25 226 189.16 224.91 189.16 223.596V201.156C189.16 199.842 190.25 198.752 191.565 198.752C192.879 198.752 193.969 199.842 193.969 201.156V223.596C193.969 224.91 192.879 226 191.565 226Z" fill="#223F73"/>
<path d="M5.61071 133.806H137.061L111.412 162.657V220.358C111.412 222.121 109.969 223.564 108.206 223.564H5.61071C3.84735 223.564 2.4046 222.121 2.4046 220.358V137.012C2.4046 135.249 3.84735 133.806 5.61071 133.806Z" fill="white"/>
<path d="M121.383 133.806L101.024 156.727C99.4535 158.49 98.5878 160.766 98.5878 163.106V207.536C98.5878 209.299 97.1451 210.741 95.3817 210.741H2.4046V220.358C2.4046 222.121 3.84735 223.564 5.61071 223.564H108.206C109.969 223.564 111.412 222.121 111.412 220.358V162.657L137.061 133.806H121.383Z" fill="#94C9FF"/>
<path d="M108.206 225.968H5.61069C2.53282 225.968 0 223.436 0 220.358V137.012C0 133.935 2.53282 131.402 5.61069 131.402H137.061C137.991 131.402 138.856 131.947 139.241 132.813C139.626 133.678 139.466 134.672 138.856 135.409L113.817 163.587V220.39C113.817 223.468 111.284 226 108.206 226V225.968ZM5.61069 136.211C5.16183 136.211 4.80916 136.563 4.80916 137.012V220.358C4.80916 220.807 5.16183 221.16 5.61069 221.16H108.206C108.655 221.16 109.008 220.807 109.008 220.358V162.657C109.008 162.08 109.232 161.503 109.617 161.054L131.707 136.211H5.61069Z" fill="#223F73"/>
<path d="M60.1145 205.163H21.6412C20.3267 205.163 19.2366 204.073 19.2366 202.759C19.2366 201.445 20.3267 200.355 21.6412 200.355H60.1145C61.429 200.355 62.5191 201.445 62.5191 202.759C62.5191 204.073 61.429 205.163 60.1145 205.163Z" fill="#223F73"/>
<path d="M92.1756 189.135H53.7023C52.3878 189.135 51.2977 188.045 51.2977 186.731C51.2977 185.417 52.3878 184.327 53.7023 184.327H92.1756C93.4901 184.327 94.5802 185.417 94.5802 186.731C94.5802 188.045 93.4901 189.135 92.1756 189.135Z" fill="#223F73"/>
<path d="M40.8779 189.135H21.6412C20.3267 189.135 19.2366 188.045 19.2366 186.731C19.2366 185.417 20.3267 184.327 21.6412 184.327H40.8779C42.1924 184.327 43.2824 185.417 43.2824 186.731C43.2824 188.045 42.1924 189.135 40.8779 189.135Z" fill="#223F73"/>
<path d="M92.1756 173.107H72.9389C71.6244 173.107 70.5344 172.017 70.5344 170.703C70.5344 169.389 71.6244 168.299 72.9389 168.299H92.1756C93.4901 168.299 94.5802 169.389 94.5802 170.703C94.5802 172.017 93.4901 173.107 92.1756 173.107Z" fill="#223F73"/>
<path d="M60.1145 173.107H21.6412C20.3267 173.107 19.2366 172.017 19.2366 170.703C19.2366 169.389 20.3267 168.299 21.6412 168.299H60.1145C61.429 168.299 62.5191 169.389 62.5191 170.703C62.5191 172.017 61.429 173.107 60.1145 173.107Z" fill="#223F73"/>
<path d="M92.1756 157.079H56.9084C55.5939 157.079 54.5038 155.989 54.5038 154.675C54.5038 153.361 55.5939 152.271 56.9084 152.271H92.1756C93.4901 152.271 94.5802 153.361 94.5802 154.675C94.5802 155.989 93.4901 157.079 92.1756 157.079Z" fill="#223F73"/>
<path d="M44.084 157.079H21.6412C20.3267 157.079 19.2366 155.989 19.2366 154.675C19.2366 153.361 20.3267 152.271 21.6412 152.271H44.084C45.3985 152.271 46.4885 153.361 46.4885 154.675C46.4885 155.989 45.3985 157.079 44.084 157.079Z" fill="#223F73"/>
<path d="M204.389 18.4043H72.9389L98.5878 47.2549V104.956C98.5878 106.719 100.031 108.162 101.794 108.162H204.389C206.153 108.162 207.595 106.719 207.595 104.956V21.6099C207.595 19.8468 206.153 18.4043 204.389 18.4043Z" fill="#94C9FF"/>
<path d="M194.771 18.4043L73.3878 18.9172L98.5878 47.2549V95.3391H191.565C193.328 95.3391 194.771 93.8966 194.771 92.1335V18.4043Z" fill="white"/>
<path d="M204.389 110.566H101.794C98.716 110.566 96.1832 108.033 96.1832 104.956V48.1844L71.1435 20.007C70.5023 19.3018 70.374 18.276 70.7588 17.4105C71.1435 16.545 72.0092 16 72.9389 16H204.389C207.467 16 210 18.5324 210 21.6098V104.956C210 108.033 207.467 110.566 204.389 110.566ZM78.2931 20.8084L100.383 45.652C100.768 46.1007 100.992 46.6457 100.992 47.2548V104.956C100.992 105.405 101.345 105.757 101.794 105.757H204.389C204.838 105.757 205.191 105.405 205.191 104.956V21.6098C205.191 21.161 204.838 20.8084 204.389 20.8084H78.2931Z" fill="#223F73"/>
<path d="M172.328 89.7613H117.824C116.51 89.7613 115.42 88.6714 115.42 87.3571C115.42 86.0428 116.51 84.9529 117.824 84.9529H172.328C173.643 84.9529 174.733 86.0428 174.733 87.3571C174.733 88.6714 173.643 89.7613 172.328 89.7613Z" fill="#223F73"/>
<path d="M188.359 73.7332H156.298C154.983 73.7332 153.893 72.6433 153.893 71.329C153.893 70.0147 154.983 68.9248 156.298 68.9248H188.359C189.673 68.9248 190.763 70.0147 190.763 71.329C190.763 72.6433 189.673 73.7332 188.359 73.7332Z" fill="#223F73"/>
<path d="M143.473 73.7332H117.824C116.51 73.7332 115.42 72.6433 115.42 71.329C115.42 70.0147 116.51 68.9248 117.824 68.9248H143.473C144.788 68.9248 145.878 70.0147 145.878 71.329C145.878 72.6433 144.788 73.7332 143.473 73.7332Z" fill="#223F73"/>
<path d="M159.504 57.7052H117.824C116.51 57.7052 115.42 56.6152 115.42 55.3009C115.42 53.9866 116.51 52.8967 117.824 52.8967H159.504C160.818 52.8967 161.908 53.9866 161.908 55.3009C161.908 56.6152 160.818 57.7052 159.504 57.7052Z" fill="#223F73"/>
<path d="M188.359 41.6771H165.916C164.602 41.6771 163.511 40.5872 163.511 39.2729C163.511 37.9586 164.602 36.8687 165.916 36.8687H188.359C189.673 36.8687 190.763 37.9586 190.763 39.2729C190.763 40.5872 189.673 41.6771 188.359 41.6771Z" fill="#223F73"/>
<path d="M153.092 41.6771H117.824C116.51 41.6771 115.42 40.5872 115.42 39.2729C115.42 37.9586 116.51 36.8687 117.824 36.8687H153.092C154.406 36.8687 155.496 37.9586 155.496 39.2729C155.496 40.5872 154.406 41.6771 153.092 41.6771Z" fill="#223F73"/>
<g clip-path="url(#clip0_208_8405)">
<path d="M173.878 4H146.348C145.302 4 144.434 3.09333 144.434 2C144.434 0.906667 145.302 0 146.348 0H173.878C174.924 0 175.792 0.906667 175.792 2C175.792 3.09333 174.924 4 173.878 4Z" fill="#2B5185"/>
</g>
<g clip-path="url(#clip1_208_8405)">
<path d="M192.976 4H180.463C179.987 4 179.593 3.09333 179.593 2C179.593 0.906667 179.987 0 180.463 0H192.976C193.452 0 193.846 0.906667 193.846 2C193.846 3.09333 193.452 4 192.976 4Z" fill="#2B5185"/>
</g>
<defs>
<clipPath id="clip0_208_8405">
<rect width="31.3575" height="4" fill="white" transform="translate(144.434)"/>
</clipPath>
<clipPath id="clip1_208_8405">
<rect width="14.2534" height="4" fill="white" transform="translate(179.593)"/>
</clipPath>
</defs>
</svg>
