<svg width="220" height="211" viewBox="0 0 220 211" fill="none" xmlns="http://www.w3.org/2000/svg">
<path d="M105 2.40454L2.40454 90.0916L105 177.779L207.595 90.0916L105 2.40454Z" fill="white"/>
<path d="M105 180.183C104.455 180.183 103.878 179.991 103.429 179.606L0.833588 91.9191C0.320611 91.4702 0 90.7969 0 90.0916C0 89.3863 0.320611 88.713 0.833588 88.2641L103.429 0.577099C104.327 -0.192366 105.641 -0.192366 106.539 0.577099L209.134 88.2641C209.679 88.713 209.968 89.3863 209.968 90.0916C209.968 90.7969 209.647 91.4702 209.134 91.9191L106.539 179.606C106.09 179.991 105.545 180.183 104.968 180.183H105ZM6.0916 90.0916L105 174.605L203.908 90.0916L105 5.57863L6.0916 90.0916Z" fill="#2B5185"/>
<path d="M173.931 31.2595H36.0687V207.595H173.931V31.2595Z" fill="#A3D4FF"/>
<path d="M36.0687 44.084H157.901C159.664 44.084 161.107 45.5267 161.107 47.2901V207.595H36.0687V44.084Z" fill="white"/>
<path d="M173.931 210H36.0686C34.7541 210 33.6641 208.91 33.6641 207.595V31.2596C33.6641 29.9451 34.7541 28.855 36.0686 28.855H173.931C175.246 28.855 176.336 29.9451 176.336 31.2596V207.595C176.336 208.91 175.246 210 173.931 210ZM38.4732 205.191H171.527V33.6641H38.4732V205.191Z" fill="#2B5185"/>
<path d="M151.489 56.1068H119.139C117.824 56.1068 116.734 55.0167 116.734 53.7022C116.734 52.3877 117.824 51.2976 119.139 51.2976H151.489C152.803 51.2976 153.893 52.3877 153.893 53.7022C153.893 55.0167 152.803 56.1068 151.489 56.1068Z" fill="#2B5185"/>
<path d="M105.673 56.1068H58.5115C57.197 56.1068 56.1069 55.0167 56.1069 53.7022C56.1069 52.3877 57.197 51.2976 58.5115 51.2976H105.673C106.988 51.2976 108.078 52.3877 108.078 53.7022C108.078 55.0167 106.988 56.1068 105.673 56.1068Z" fill="#2B5185"/>
<path d="M151.489 75.3436H103.974C102.66 75.3436 101.569 74.2535 101.569 72.939C101.569 71.6245 102.66 70.5344 103.974 70.5344H151.489C152.803 70.5344 153.893 71.6245 153.893 72.939C153.893 74.2535 152.803 75.3436 151.489 75.3436Z" fill="#2B5185"/>
<path d="M90.5085 75.3436H58.5115C57.197 75.3436 56.1069 74.2535 56.1069 72.939C56.1069 71.6245 57.197 70.5344 58.5115 70.5344H90.5085C91.823 70.5344 92.913 71.6245 92.913 72.939C92.913 74.2535 91.823 75.3436 90.5085 75.3436Z" fill="#2B5185"/>
<path d="M151.489 94.5802H120.806C119.492 94.5802 118.401 93.4901 118.401 92.1756C118.401 90.8611 119.492 89.771 120.806 89.771H151.489C152.803 89.771 153.893 90.8611 153.893 92.1756C153.893 93.4901 152.803 94.5802 151.489 94.5802Z" fill="#2B5185"/>
<path d="M107.341 94.5802H58.5115C57.197 94.5802 56.1069 93.4901 56.1069 92.1756C56.1069 90.8611 57.197 89.771 58.5115 89.771H107.341C108.655 89.771 109.745 90.8611 109.745 92.1756C109.745 93.4901 108.655 94.5802 107.341 94.5802Z" fill="#2B5185"/>
<path d="M90.9573 113.817H58.5115C57.197 113.817 56.1069 112.727 56.1069 111.412C56.1069 110.098 57.197 109.008 58.5115 109.008H90.9573C92.2718 109.008 93.3619 110.098 93.3619 111.412C93.3619 112.727 92.2718 113.817 90.9573 113.817Z" fill="#2B5185"/>
<path d="M2.40454 90.0916V207.595L71.1435 148.859L2.40454 90.0916Z" fill="#A3D4FF"/>
<path d="M2.40454 106.122V207.595L61.7496 156.875L2.40454 106.122Z" fill="white"/>
<path d="M2.40458 210C2.05191 210 1.7313 209.936 1.41069 209.776C0.545038 209.391 0 208.525 0 207.595V90.0916C0 89.1619 0.545038 88.2962 1.41069 87.9115C2.27634 87.5268 3.27023 87.655 3.97557 88.2642L72.7145 147C73.2595 147.449 73.5481 148.122 73.5481 148.828C73.5481 149.533 73.2275 150.206 72.7145 150.655L3.97557 209.423C3.52672 209.808 2.98168 210 2.40458 210ZM4.80916 95.3176V202.37L67.4565 148.828L4.80916 95.3176Z" fill="#2B5185"/>
<path d="M138.856 148.859L207.595 207.595V90.0916L138.856 148.859Z" fill="#A3D4FF"/>
<path d="M138.856 148.859L194.771 196.63V101.056L138.856 148.859Z" fill="white"/>
<path d="M207.595 210C207.018 210 206.473 209.808 206.024 209.423L137.285 150.687C136.74 150.238 136.452 149.565 136.452 148.86C136.452 148.154 136.773 147.481 137.285 147.032L206.024 88.2961C206.73 87.687 207.756 87.5587 208.589 87.9435C209.455 88.3282 210 89.1939 210 90.1236V207.627C210 208.557 209.455 209.423 208.589 209.808C208.269 209.968 207.916 210.032 207.595 210.032V210ZM142.576 148.86L205.191 202.401V95.3175L142.576 148.86Z" fill="#2B5185"/>
<path d="M105 119.908L2.40454 207.595H207.595L105 119.908Z" fill="#A3D4FF"/>
<path d="M95.3816 128.116L2.40454 207.595H188.359L95.3816 128.116Z" fill="white"/>
<path d="M207.595 210H2.40462C1.41073 210 0.51302 209.359 0.160348 208.429C-0.192324 207.467 0.0962262 206.409 0.865692 205.768L103.461 118.081C104.359 117.312 105.673 117.312 106.571 118.081L209.166 205.768C209.936 206.409 210.224 207.499 209.872 208.429C209.519 209.359 208.621 210 207.628 210H207.595ZM8.91302 205.191H201.087L105 123.083L8.91302 205.191Z" fill="#2B5185"/>
<path d="M116.221 197.176H62.3908C61.0763 197.176 59.9862 196.086 59.9862 194.771C59.9862 193.457 61.0763 192.366 62.3908 192.366H116.221C117.536 192.366 118.626 193.457 118.626 194.771C118.626 196.086 117.536 197.176 116.221 197.176Z" fill="#2B5185"/>
<path d="M49.5664 197.176H42.4809C41.1664 197.176 40.0763 196.086 40.0763 194.771C40.0763 193.457 41.1664 192.366 42.4809 192.366H49.5664C50.8809 192.366 51.9709 193.457 51.9709 194.771C51.9709 196.086 50.8809 197.176 49.5664 197.176Z" fill="#2B5185"/>
<path d="M217.714 46.143H205.524C204.274 46.143 203.238 45.1068 203.238 43.8572C203.238 42.6077 204.274 41.5715 205.524 41.5715H217.714C218.964 41.5715 220 42.6077 220 43.8572C220 45.1068 218.964 46.143 217.714 46.143Z" fill="#2B5185"/>
<path d="M211.619 52.238C210.37 52.238 209.333 51.2018 209.333 49.9523V37.7618C209.333 36.5123 210.37 35.4761 211.619 35.4761C212.869 35.4761 213.905 36.5123 213.905 37.7618V49.9523C213.905 51.2018 212.869 52.238 211.619 52.238Z" fill="#2B5185"/>
<path d="M202.476 15.6666H190.286C189.036 15.6666 188 14.6305 188 13.3809C188 12.1314 189.036 11.0952 190.286 11.0952H202.476C203.726 11.0952 204.762 12.1314 204.762 13.3809C204.762 14.6305 203.726 15.6666 202.476 15.6666Z" fill="#2B5185"/>
<path d="M196.381 21.7619C195.131 21.7619 194.095 20.7257 194.095 19.4762V7.28571C194.095 6.03619 195.131 5 196.381 5C197.63 5 198.667 6.03619 198.667 7.28571V19.4762C198.667 20.7257 197.63 21.7619 196.381 21.7619Z" fill="#2B5185"/>
</svg>
