<svg width="25" height="25" viewBox="0 0 25 25" fill="none" xmlns="http://www.w3.org/2000/svg">
<path d="M21.87 8.66865L13.3 2.95865C13.1385 2.84633 12.9466 2.78613 12.75 2.78613C12.5533 2.78613 12.3614 2.84633 12.2 2.95865L3.62996 8.66865C3.17496 8.97565 2.75996 9.19065 2.75996 9.74865C2.74296 9.76565 2.74996 17.7636 2.74996 17.7886C2.75049 19.1146 3.27745 20.386 4.21501 21.3236C5.15258 22.2612 6.42404 22.7881 7.74996 22.7886H17.75C19.0759 22.7881 20.3473 22.2612 21.2849 21.3236C22.2225 20.386 22.7494 19.1146 22.75 17.7886V9.78865C22.75 9.18965 22.354 8.99465 21.87 8.66865ZM12.75 4.98865L19.89 9.74865L12.75 13.6486L5.60996 9.74865L12.75 4.98865ZM20.75 17.7886C20.7476 18.5836 20.4308 19.3452 19.8687 19.9073C19.3066 20.4694 18.5449 20.7863 17.75 20.7886H7.74996C6.95504 20.7863 6.19336 20.4694 5.63127 19.9073C5.06917 19.3452 4.75234 18.5836 4.74996 17.7886V11.5686L12.27 15.6686C12.4176 15.7477 12.5825 15.789 12.75 15.789C12.9174 15.789 13.0823 15.7477 13.23 15.6686L20.75 11.5686V17.7886Z" fill="#194C81"/>
</svg>
