<svg width="24" height="25" viewBox="0 0 24 25" fill="none" xmlns="http://www.w3.org/2000/svg">
<path d="M19 8.2C19 6.29044 18.2414 4.45909 16.8912 3.10883C15.5409 1.75857 13.7096 1 11.8 1C9.89044 1 8.05909 1.75857 6.70883 3.10883C5.35857 4.45909 4.6 6.29044 4.6 8.2C4.6 16.6 1 19 1 19H22.6C22.6 19 19 16.6 19 8.2Z" stroke="#194C81" stroke-width="2" stroke-linecap="round" stroke-linejoin="round"/>
<path d="M13.5298 23C13.354 23.3031 13.1017 23.5547 12.798 23.7295C12.4944 23.9044 12.1502 23.9965 11.7998 23.9965C11.4494 23.9965 11.1052 23.9044 10.8016 23.7295C10.498 23.5547 10.2456 23.3031 10.0698 23" stroke="#194C81" stroke-width="2" stroke-linecap="round" stroke-linejoin="round"/>
</svg>
