<svg width="28" height="28" viewBox="0 0 28 28" fill="none" xmlns="http://www.w3.org/2000/svg">
<path d="M4.375 14.875H17.5V21.875H4.375V14.875Z" fill="white"/>
<path d="M24.5 8.20311C24.5039 8.18288 24.5039 8.16209 24.5 8.14186C24.4787 8.08972 24.4475 8.04218 24.4081 8.00186L18.2831 1.87686C18.2428 1.83751 18.1953 1.80631 18.1431 1.78499C18.1229 1.78109 18.1021 1.78109 18.0819 1.78499C18.0374 1.76148 17.9878 1.74945 17.9375 1.74999H5.6875C5.57147 1.74999 5.46019 1.79608 5.37814 1.87813C5.29609 1.96018 5.25 2.07145 5.25 2.18749V14H3.9375C3.82147 14 3.71019 14.0461 3.62814 14.1281C3.54609 14.2102 3.5 14.3215 3.5 14.4375V22.3125C3.5 22.4285 3.54609 22.5398 3.62814 22.6218C3.71019 22.7039 3.82147 22.75 3.9375 22.75H5.25V25.8125C5.25 25.9285 5.29609 26.0398 5.37814 26.1218C5.46019 26.2039 5.57147 26.25 5.6875 26.25H24.0625C24.1785 26.25 24.2898 26.2039 24.3719 26.1218C24.4539 26.0398 24.5 25.9285 24.5 25.8125V8.31249C24.5067 8.27633 24.5067 8.23927 24.5 8.20311ZM18.375 3.24186L23.0081 7.87499H18.375V3.24186ZM4.375 14.875H17.5V21.875H4.375V14.875ZM6.125 25.375V22.75H17.9375C18.0535 22.75 18.1648 22.7039 18.2469 22.6218C18.3289 22.5398 18.375 22.4285 18.375 22.3125V14.4375C18.375 14.3215 18.3289 14.2102 18.2469 14.1281C18.1648 14.0461 18.0535 14 17.9375 14H6.125V2.62499H17.5V8.31249C17.5 8.42852 17.5461 8.5398 17.6281 8.62185C17.7102 8.70389 17.8215 8.74999 17.9375 8.74999H23.625V25.375H6.125Z" fill="#B3261E"/>
<path d="M23.0081 7.87501H18.375V3.24188L23.0081 7.87501Z" fill="#F9DEDC"/>
<path d="M23.625 8.75V25.375H6.125V22.75H17.9375C18.0535 22.75 18.1648 22.7039 18.2469 22.6219C18.3289 22.5398 18.375 22.4285 18.375 22.3125V14.4375C18.375 14.3215 18.3289 14.2102 18.2469 14.1281C18.1648 14.0461 18.0535 14 17.9375 14H6.125V2.625H17.5V8.3125C17.5 8.42853 17.5461 8.53981 17.6281 8.62186C17.7102 8.70391 17.8215 8.75 17.9375 8.75H23.625Z" fill="#F9DEDC"/>
<path d="M6.5625 20.125V16.625H7.72625C8.02503 16.6052 8.32074 16.6954 8.5575 16.8788C8.677 16.9827 8.77166 17.1121 8.83451 17.2575C8.89735 17.4029 8.92678 17.5605 8.92062 17.7188C8.91798 17.9233 8.85894 18.1231 8.75 18.2963C8.64768 18.4669 8.49477 18.6015 8.3125 18.6813C8.15432 18.7517 7.98247 18.786 7.80938 18.7819H7.28437V20.125H6.5625ZM7.30188 18.1475H7.71312C7.84269 18.1543 7.9698 18.1104 8.0675 18.025C8.11076 17.9816 8.14442 17.9295 8.16627 17.8722C8.18813 17.815 8.1977 17.7537 8.19437 17.6925C8.19437 17.4242 8.03396 17.29 7.71312 17.29H7.30188V18.1475ZM9.60313 20.125V16.625H10.9156C11.2446 16.6134 11.567 16.7188 11.8256 16.9225C12.0398 17.0967 12.2097 17.3191 12.3215 17.5716C12.4333 17.824 12.4837 18.0993 12.4687 18.375C12.4725 18.696 12.3974 19.013 12.25 19.2981C12.112 19.5648 11.8991 19.7853 11.6375 19.9325C11.3352 20.0776 11.0011 20.1439 10.6662 20.125H9.60313ZM10.3425 19.46H10.815C10.983 19.4661 11.1491 19.422 11.2919 19.3331C11.4433 19.2195 11.563 19.0689 11.6396 18.8958C11.7162 18.7227 11.7471 18.5329 11.7294 18.3444C11.7443 18.1672 11.714 17.9892 11.6413 17.827C11.5686 17.6648 11.4559 17.5237 11.3137 17.4169C11.1729 17.3274 11.008 17.2831 10.8412 17.29H10.3425V19.46ZM13.23 20.125V16.625H15.2337V17.29H13.9694V18.0031H15.1287V18.6681H13.9694V20.125H13.23Z" fill="#B3261E"/>
</svg>
