<svg width="59" height="58" viewBox="0 0 59 58" fill="none" xmlns="http://www.w3.org/2000/svg">
<path d="M31.3125 3.475H11.375C9.8931 3.475 8.4719 4.06368 7.42404 5.11154C6.37618 6.1594 5.7875 7.5806 5.7875 9.0625V48.9375C5.7875 50.4194 6.37618 51.8406 7.42404 52.8885C8.4719 53.9363 9.8931 54.525 11.375 54.525H47.625C49.1069 54.525 50.5281 53.9363 51.576 52.8885C52.6238 51.8406 53.2125 50.4194 53.2125 48.9375V29C53.2125 27.5181 52.6238 26.0969 51.576 25.049C50.5281 24.0012 49.1069 23.4125 47.625 23.4125H36.9V9.0625C36.9 7.5806 36.3113 6.1594 35.2635 5.11154C34.2156 4.06368 32.7944 3.475 31.3125 3.475ZM7.9 48.9375V9.0625C7.9 8.14087 8.26611 7.25699 8.9178 6.6053C9.56949 5.95361 10.4534 5.5875 11.375 5.5875H31.3125C32.2341 5.5875 33.118 5.95361 33.7697 6.6053C34.4214 7.25699 34.7875 8.14087 34.7875 9.0625V52.4125H27.8375V40.7812C27.8375 40.5011 27.7262 40.2325 27.5281 40.0344C27.33 39.8363 27.0614 39.725 26.7812 39.725H15.9062C15.6261 39.725 15.3575 39.8363 15.1594 40.0344C14.9613 40.2325 14.85 40.5011 14.85 40.7812V52.4125H11.375C10.4534 52.4125 9.56949 52.0464 8.9178 51.3947C8.26611 50.743 7.9 49.8591 7.9 48.9375ZM16.9625 52.4125V41.8375H25.725V52.4125H16.9625ZM47.625 25.525C48.5466 25.525 49.4305 25.8911 50.0822 26.5428C50.7339 27.1945 51.1 28.0784 51.1 29V48.9375C51.1 49.8591 50.7339 50.743 50.0822 51.3947C49.4305 52.0464 48.5466 52.4125 47.625 52.4125H36.9V25.525H47.625Z" fill="#194C81" stroke="#194C81" stroke-width="0.3"/>
<mask id="path-2-outside-1_537_8092" maskUnits="userSpaceOnUse" x="10.375" y="8.0625" width="38" height="36" fill="black">
<rect fill="white" x="10.375" y="8.0625" width="38" height="36"/>
<path d="M12.2812 14.5H15.9062C16.1466 14.5 16.3771 14.4045 16.5471 14.2346C16.717 14.0646 16.8125 13.8341 16.8125 13.5938V9.96875C16.8125 9.7284 16.717 9.49789 16.5471 9.32793C16.3771 9.15798 16.1466 9.0625 15.9062 9.0625H12.2812C12.0409 9.0625 11.8104 9.15798 11.6404 9.32793C11.4705 9.49789 11.375 9.7284 11.375 9.96875V13.5938C11.375 13.8341 11.4705 14.0646 11.6404 14.2346C11.8104 14.4045 12.0409 14.5 12.2812 14.5ZM13.1875 10.875H15V12.6875H13.1875V10.875ZM12.2812 23.5625H15.9062C16.1466 23.5625 16.3771 23.467 16.5471 23.2971C16.717 23.1271 16.8125 22.8966 16.8125 22.6562V19.0312C16.8125 18.7909 16.717 18.5604 16.5471 18.3904C16.3771 18.2205 16.1466 18.125 15.9062 18.125H12.2812C12.0409 18.125 11.8104 18.2205 11.6404 18.3904C11.4705 18.5604 11.375 18.7909 11.375 19.0312V22.6562C11.375 22.8966 11.4705 23.1271 11.6404 23.2971C11.8104 23.467 12.0409 23.5625 12.2812 23.5625ZM13.1875 19.9375H15V21.75H13.1875V19.9375ZM15.9062 32.625C16.1466 32.625 16.3771 32.5295 16.5471 32.3596C16.717 32.1896 16.8125 31.9591 16.8125 31.7188V28.0938C16.8125 27.8534 16.717 27.6229 16.5471 27.4529C16.3771 27.283 16.1466 27.1875 15.9062 27.1875H12.2812C12.0409 27.1875 11.8104 27.283 11.6404 27.4529C11.4705 27.6229 11.375 27.8534 11.375 28.0938V31.7188C11.375 31.9591 11.4705 32.1896 11.6404 32.3596C11.8104 32.5295 12.0409 32.625 12.2812 32.625H15.9062ZM13.1875 29H15V30.8125H13.1875V29ZM26.7813 14.5H30.4062C30.6466 14.5 30.8771 14.4045 31.0471 14.2346C31.217 14.0646 31.3125 13.8341 31.3125 13.5938V9.96875C31.3125 9.7284 31.217 9.49789 31.0471 9.32793C30.8771 9.15798 30.6466 9.0625 30.4062 9.0625H26.7813C26.5409 9.0625 26.3104 9.15798 26.1404 9.32793C25.9705 9.49789 25.875 9.7284 25.875 9.96875V13.5938C25.875 13.8341 25.9705 14.0646 26.1404 14.2346C26.3104 14.4045 26.5409 14.5 26.7813 14.5ZM27.6875 10.875H29.5V12.6875H27.6875V10.875ZM26.7813 23.5625H30.4062C30.6466 23.5625 30.8771 23.467 31.0471 23.2971C31.217 23.1271 31.3125 22.8966 31.3125 22.6562V19.0312C31.3125 18.7909 31.217 18.5604 31.0471 18.3904C30.8771 18.2205 30.6466 18.125 30.4062 18.125H26.7813C26.5409 18.125 26.3104 18.2205 26.1404 18.3904C25.9705 18.5604 25.875 18.7909 25.875 19.0312V22.6562C25.875 22.8966 25.9705 23.1271 26.1404 23.2971C26.3104 23.467 26.5409 23.5625 26.7813 23.5625ZM27.6875 19.9375H29.5V21.75H27.6875V19.9375ZM26.7813 32.625H30.4062C30.6466 32.625 30.8771 32.5295 31.0471 32.3596C31.217 32.1896 31.3125 31.9591 31.3125 31.7188V28.0938C31.3125 27.8534 31.217 27.6229 31.0471 27.4529C30.8771 27.283 30.6466 27.1875 30.4062 27.1875H26.7813C26.5409 27.1875 26.3104 27.283 26.1404 27.4529C25.9705 27.6229 25.875 27.8534 25.875 28.0938V31.7188C25.875 31.9591 25.9705 32.1896 26.1404 32.3596C26.3104 32.5295 26.5409 32.625 26.7813 32.625ZM27.6875 29H29.5V30.8125H27.6875V29ZM43.0938 34.4375H46.7188C46.9591 34.4375 47.1896 34.342 47.3596 34.1721C47.5295 34.0021 47.625 33.7716 47.625 33.5312V29.9062C47.625 29.6659 47.5295 29.4354 47.3596 29.2654C47.1896 29.0955 46.9591 29 46.7188 29H43.0938C42.8534 29 42.6229 29.0955 42.4529 29.2654C42.283 29.4354 42.1875 29.6659 42.1875 29.9062V33.5312C42.1875 33.7716 42.283 34.0021 42.4529 34.1721C42.6229 34.342 42.8534 34.4375 43.0938 34.4375ZM44 30.8125H45.8125V32.625H44V30.8125ZM43.0938 43.5H46.7188C46.9591 43.5 47.1896 43.4045 47.3596 43.2346C47.5295 43.0646 47.625 42.8341 47.625 42.5938V38.9688C47.625 38.7284 47.5295 38.4979 47.3596 38.3279C47.1896 38.158 46.9591 38.0625 46.7188 38.0625H43.0938C42.8534 38.0625 42.6229 38.158 42.4529 38.3279C42.283 38.4979 42.1875 38.7284 42.1875 38.9688V42.5938C42.1875 42.8341 42.283 43.0646 42.4529 43.2346C42.6229 43.4045 42.8534 43.5 43.0938 43.5ZM44 39.875H45.8125V41.6875H44V39.875Z"/>
</mask>
<path d="M12.2812 14.5H15.9062C16.1466 14.5 16.3771 14.4045 16.5471 14.2346C16.717 14.0646 16.8125 13.8341 16.8125 13.5938V9.96875C16.8125 9.7284 16.717 9.49789 16.5471 9.32793C16.3771 9.15798 16.1466 9.0625 15.9062 9.0625H12.2812C12.0409 9.0625 11.8104 9.15798 11.6404 9.32793C11.4705 9.49789 11.375 9.7284 11.375 9.96875V13.5938C11.375 13.8341 11.4705 14.0646 11.6404 14.2346C11.8104 14.4045 12.0409 14.5 12.2812 14.5ZM13.1875 10.875H15V12.6875H13.1875V10.875ZM12.2812 23.5625H15.9062C16.1466 23.5625 16.3771 23.467 16.5471 23.2971C16.717 23.1271 16.8125 22.8966 16.8125 22.6562V19.0312C16.8125 18.7909 16.717 18.5604 16.5471 18.3904C16.3771 18.2205 16.1466 18.125 15.9062 18.125H12.2812C12.0409 18.125 11.8104 18.2205 11.6404 18.3904C11.4705 18.5604 11.375 18.7909 11.375 19.0312V22.6562C11.375 22.8966 11.4705 23.1271 11.6404 23.2971C11.8104 23.467 12.0409 23.5625 12.2812 23.5625ZM13.1875 19.9375H15V21.75H13.1875V19.9375ZM15.9062 32.625C16.1466 32.625 16.3771 32.5295 16.5471 32.3596C16.717 32.1896 16.8125 31.9591 16.8125 31.7188V28.0938C16.8125 27.8534 16.717 27.6229 16.5471 27.4529C16.3771 27.283 16.1466 27.1875 15.9062 27.1875H12.2812C12.0409 27.1875 11.8104 27.283 11.6404 27.4529C11.4705 27.6229 11.375 27.8534 11.375 28.0938V31.7188C11.375 31.9591 11.4705 32.1896 11.6404 32.3596C11.8104 32.5295 12.0409 32.625 12.2812 32.625H15.9062ZM13.1875 29H15V30.8125H13.1875V29ZM26.7813 14.5H30.4062C30.6466 14.5 30.8771 14.4045 31.0471 14.2346C31.217 14.0646 31.3125 13.8341 31.3125 13.5938V9.96875C31.3125 9.7284 31.217 9.49789 31.0471 9.32793C30.8771 9.15798 30.6466 9.0625 30.4062 9.0625H26.7813C26.5409 9.0625 26.3104 9.15798 26.1404 9.32793C25.9705 9.49789 25.875 9.7284 25.875 9.96875V13.5938C25.875 13.8341 25.9705 14.0646 26.1404 14.2346C26.3104 14.4045 26.5409 14.5 26.7813 14.5ZM27.6875 10.875H29.5V12.6875H27.6875V10.875ZM26.7813 23.5625H30.4062C30.6466 23.5625 30.8771 23.467 31.0471 23.2971C31.217 23.1271 31.3125 22.8966 31.3125 22.6562V19.0312C31.3125 18.7909 31.217 18.5604 31.0471 18.3904C30.8771 18.2205 30.6466 18.125 30.4062 18.125H26.7813C26.5409 18.125 26.3104 18.2205 26.1404 18.3904C25.9705 18.5604 25.875 18.7909 25.875 19.0312V22.6562C25.875 22.8966 25.9705 23.1271 26.1404 23.2971C26.3104 23.467 26.5409 23.5625 26.7813 23.5625ZM27.6875 19.9375H29.5V21.75H27.6875V19.9375ZM26.7813 32.625H30.4062C30.6466 32.625 30.8771 32.5295 31.0471 32.3596C31.217 32.1896 31.3125 31.9591 31.3125 31.7188V28.0938C31.3125 27.8534 31.217 27.6229 31.0471 27.4529C30.8771 27.283 30.6466 27.1875 30.4062 27.1875H26.7813C26.5409 27.1875 26.3104 27.283 26.1404 27.4529C25.9705 27.6229 25.875 27.8534 25.875 28.0938V31.7188C25.875 31.9591 25.9705 32.1896 26.1404 32.3596C26.3104 32.5295 26.5409 32.625 26.7813 32.625ZM27.6875 29H29.5V30.8125H27.6875V29ZM43.0938 34.4375H46.7188C46.9591 34.4375 47.1896 34.342 47.3596 34.1721C47.5295 34.0021 47.625 33.7716 47.625 33.5312V29.9062C47.625 29.6659 47.5295 29.4354 47.3596 29.2654C47.1896 29.0955 46.9591 29 46.7188 29H43.0938C42.8534 29 42.6229 29.0955 42.4529 29.2654C42.283 29.4354 42.1875 29.6659 42.1875 29.9062V33.5312C42.1875 33.7716 42.283 34.0021 42.4529 34.1721C42.6229 34.342 42.8534 34.4375 43.0938 34.4375ZM44 30.8125H45.8125V32.625H44V30.8125ZM43.0938 43.5H46.7188C46.9591 43.5 47.1896 43.4045 47.3596 43.2346C47.5295 43.0646 47.625 42.8341 47.625 42.5938V38.9688C47.625 38.7284 47.5295 38.4979 47.3596 38.3279C47.1896 38.158 46.9591 38.0625 46.7188 38.0625H43.0938C42.8534 38.0625 42.6229 38.158 42.4529 38.3279C42.283 38.4979 42.1875 38.7284 42.1875 38.9688V42.5938C42.1875 42.8341 42.283 43.0646 42.4529 43.2346C42.6229 43.4045 42.8534 43.5 43.0938 43.5ZM44 39.875H45.8125V41.6875H44V39.875Z" fill="#194C81"/>
<path d="M12.2812 14.5H15.9062C16.1466 14.5 16.3771 14.4045 16.5471 14.2346C16.717 14.0646 16.8125 13.8341 16.8125 13.5938V9.96875C16.8125 9.7284 16.717 9.49789 16.5471 9.32793C16.3771 9.15798 16.1466 9.0625 15.9062 9.0625H12.2812C12.0409 9.0625 11.8104 9.15798 11.6404 9.32793C11.4705 9.49789 11.375 9.7284 11.375 9.96875V13.5938C11.375 13.8341 11.4705 14.0646 11.6404 14.2346C11.8104 14.4045 12.0409 14.5 12.2812 14.5ZM13.1875 10.875H15V12.6875H13.1875V10.875ZM12.2812 23.5625H15.9062C16.1466 23.5625 16.3771 23.467 16.5471 23.2971C16.717 23.1271 16.8125 22.8966 16.8125 22.6562V19.0312C16.8125 18.7909 16.717 18.5604 16.5471 18.3904C16.3771 18.2205 16.1466 18.125 15.9062 18.125H12.2812C12.0409 18.125 11.8104 18.2205 11.6404 18.3904C11.4705 18.5604 11.375 18.7909 11.375 19.0312V22.6562C11.375 22.8966 11.4705 23.1271 11.6404 23.2971C11.8104 23.467 12.0409 23.5625 12.2812 23.5625ZM13.1875 19.9375H15V21.75H13.1875V19.9375ZM15.9062 32.625C16.1466 32.625 16.3771 32.5295 16.5471 32.3596C16.717 32.1896 16.8125 31.9591 16.8125 31.7188V28.0938C16.8125 27.8534 16.717 27.6229 16.5471 27.4529C16.3771 27.283 16.1466 27.1875 15.9062 27.1875H12.2812C12.0409 27.1875 11.8104 27.283 11.6404 27.4529C11.4705 27.6229 11.375 27.8534 11.375 28.0938V31.7188C11.375 31.9591 11.4705 32.1896 11.6404 32.3596C11.8104 32.5295 12.0409 32.625 12.2812 32.625H15.9062ZM13.1875 29H15V30.8125H13.1875V29ZM26.7813 14.5H30.4062C30.6466 14.5 30.8771 14.4045 31.0471 14.2346C31.217 14.0646 31.3125 13.8341 31.3125 13.5938V9.96875C31.3125 9.7284 31.217 9.49789 31.0471 9.32793C30.8771 9.15798 30.6466 9.0625 30.4062 9.0625H26.7813C26.5409 9.0625 26.3104 9.15798 26.1404 9.32793C25.9705 9.49789 25.875 9.7284 25.875 9.96875V13.5938C25.875 13.8341 25.9705 14.0646 26.1404 14.2346C26.3104 14.4045 26.5409 14.5 26.7813 14.5ZM27.6875 10.875H29.5V12.6875H27.6875V10.875ZM26.7813 23.5625H30.4062C30.6466 23.5625 30.8771 23.467 31.0471 23.2971C31.217 23.1271 31.3125 22.8966 31.3125 22.6562V19.0312C31.3125 18.7909 31.217 18.5604 31.0471 18.3904C30.8771 18.2205 30.6466 18.125 30.4062 18.125H26.7813C26.5409 18.125 26.3104 18.2205 26.1404 18.3904C25.9705 18.5604 25.875 18.7909 25.875 19.0312V22.6562C25.875 22.8966 25.9705 23.1271 26.1404 23.2971C26.3104 23.467 26.5409 23.5625 26.7813 23.5625ZM27.6875 19.9375H29.5V21.75H27.6875V19.9375ZM26.7813 32.625H30.4062C30.6466 32.625 30.8771 32.5295 31.0471 32.3596C31.217 32.1896 31.3125 31.9591 31.3125 31.7188V28.0938C31.3125 27.8534 31.217 27.6229 31.0471 27.4529C30.8771 27.283 30.6466 27.1875 30.4062 27.1875H26.7813C26.5409 27.1875 26.3104 27.283 26.1404 27.4529C25.9705 27.6229 25.875 27.8534 25.875 28.0938V31.7188C25.875 31.9591 25.9705 32.1896 26.1404 32.3596C26.3104 32.5295 26.5409 32.625 26.7813 32.625ZM27.6875 29H29.5V30.8125H27.6875V29ZM43.0938 34.4375H46.7188C46.9591 34.4375 47.1896 34.342 47.3596 34.1721C47.5295 34.0021 47.625 33.7716 47.625 33.5312V29.9062C47.625 29.6659 47.5295 29.4354 47.3596 29.2654C47.1896 29.0955 46.9591 29 46.7188 29H43.0938C42.8534 29 42.6229 29.0955 42.4529 29.2654C42.283 29.4354 42.1875 29.6659 42.1875 29.9062V33.5312C42.1875 33.7716 42.283 34.0021 42.4529 34.1721C42.6229 34.342 42.8534 34.4375 43.0938 34.4375ZM44 30.8125H45.8125V32.625H44V30.8125ZM43.0938 43.5H46.7188C46.9591 43.5 47.1896 43.4045 47.3596 43.2346C47.5295 43.0646 47.625 42.8341 47.625 42.5938V38.9688C47.625 38.7284 47.5295 38.4979 47.3596 38.3279C47.1896 38.158 46.9591 38.0625 46.7188 38.0625H43.0938C42.8534 38.0625 42.6229 38.158 42.4529 38.3279C42.283 38.4979 42.1875 38.7284 42.1875 38.9688V42.5938C42.1875 42.8341 42.283 43.0646 42.4529 43.2346C42.6229 43.4045 42.8534 43.5 43.0938 43.5ZM44 39.875H45.8125V41.6875H44V39.875Z" stroke="#194C81" stroke-width="0.01" mask="url(#path-2-outside-1_537_8092)"/>
</svg>
