<svg width="36" height="32" viewBox="0 0 36 32" fill="none" xmlns="http://www.w3.org/2000/svg">
<g clip-path="url(#clip0_232_7670)">
<path fill-rule="evenodd" clip-rule="evenodd" d="M6.38777 31.5625C5.67853 31.5625 4.96929 31.385 4.61497 30.8527C4.08318 30.3209 3.72828 29.6116 3.72828 28.9024V26.0655C3.72828 25.5337 3.37337 25.1788 2.84158 25.1788H2.66413C1.24566 25.1788 0.00463867 23.9377 0.00463867 22.5193V2.65891C0.00463867 1.24102 1.06878 0 2.66413 0H32.8081C34.2266 0 35.4676 1.24102 35.4676 2.65949V22.5193C35.4676 23.9377 34.2266 25.1788 32.8081 25.1788H14.1899C14.0125 25.1788 13.6582 25.3562 13.4801 25.3562L8.16115 30.6758C7.80624 31.2076 7.097 31.5625 6.38777 31.5625ZM2.66413 1.77338C2.13235 1.77338 1.77802 2.12829 1.77802 2.65949V22.5193C1.77802 23.0511 2.13293 23.406 2.66413 23.406H2.84158C4.26006 23.406 5.50166 24.647 5.50166 26.0655V28.9024C5.50166 29.2573 5.67853 29.4342 5.85657 29.6122C6.21089 29.9665 6.56522 30.144 7.097 29.6122L12.4166 24.2921C12.9489 23.7603 13.6582 23.5828 14.3674 23.5828H32.9856C33.5174 23.5828 33.8723 23.2279 33.8723 22.6967V2.65891C33.6948 2.12713 33.1625 1.7728 32.8081 1.7728H2.66413V1.77338Z" fill="#194C81"/>
<path fill-rule="evenodd" clip-rule="evenodd" d="M20.573 7.97905H8.87033C8.33855 7.97905 7.98364 7.62414 7.98364 7.09236C7.98364 6.56058 8.33855 6.20625 8.87033 6.20625H20.7511C21.2823 6.20625 21.6372 6.56116 21.6372 7.09236C21.6372 7.62473 21.1054 7.97905 20.573 7.97905Z" fill="#194C81"/>
<path fill-rule="evenodd" clip-rule="evenodd" d="M23.5874 11.5258H8.87033C8.33855 11.5258 7.98364 11.1709 7.98364 10.6391C7.98364 10.1068 8.33855 9.75243 8.87033 9.75243H23.5874C24.1198 9.75243 24.4741 10.1073 24.4741 10.6391C24.4741 11.1709 24.1192 11.5258 23.5874 11.5258Z" fill="#194C81"/>
<path fill-rule="evenodd" clip-rule="evenodd" d="M26.6018 15.072H8.87033C8.33855 15.072 7.98364 14.7171 7.98364 14.1853C7.98364 13.6535 8.33855 13.2986 8.87033 13.2986H26.6018C27.1342 13.2986 27.4885 13.6535 27.4885 14.1853C27.4885 14.7171 26.9567 15.072 26.6018 15.072Z" fill="#194C81"/>
<path fill-rule="evenodd" clip-rule="evenodd" d="M17.7361 18.6182H8.87033C8.33855 18.6182 7.98364 18.2633 7.98364 17.7315C7.98364 17.1997 8.33855 16.8448 8.87033 16.8448H17.7361C18.2679 16.8448 18.6228 17.1997 18.6228 17.7315C18.6228 18.2633 18.091 18.6182 17.7361 18.6182Z" fill="#194C81"/>
</g>
<defs>
<clipPath id="clip0_232_7670">
<rect width="35.4909" height="32" fill="white" transform="translate(0.00463867)"/>
</clipPath>
</defs>
</svg>
