<svg width="33" height="32" viewBox="0 0 33 32" fill="none" xmlns="http://www.w3.org/2000/svg">
<g clip-path="url(#clip0_232_7667)">
<path d="M13.7832 22.2C13.7832 21.3333 13.4499 20.5333 12.8499 19.8667L8.71657 15.7333C8.51657 15.5333 8.18324 15.4667 7.91657 15.5333C7.6499 15.6 7.38324 15.8667 7.31657 16.2C7.18324 16.8667 6.8499 18.3333 7.18323 19.5333L7.2499 19.6667L8.71657 21.1333L8.2499 21.2C7.58323 21.2 6.98323 20.9333 6.51657 20.4667L4.78324 18.7333V14.6667C4.78324 13.4667 4.0499 12.4 2.98324 11.9333C2.4499 11.7333 1.8499 11.6 1.31657 11.6H0.649902V19.7333C0.649902 20.4 0.916569 21 1.38324 21.4667L6.18323 26.2667V26.4667H4.38324V31.5333H15.3166V26.4667H13.7832V22.2ZM2.2499 20.6C2.0499 20.4 1.91657 20.1333 1.91657 19.8V13.0667C2.0499 13.1333 2.2499 13.1333 2.38324 13.2C2.98324 13.4667 3.38324 14.0667 3.38324 14.6667V19.3333L5.51657 21.4667C6.2499 22.2 7.2499 22.6 8.2499 22.6L9.91657 22.3333C10.1832 22.2667 10.4499 22.0667 10.5166 21.8C10.5832 21.5333 10.5166 21.2 10.3166 21L8.31657 19C8.18324 18.4667 8.2499 17.8667 8.31657 17.3333L11.7832 20.8C12.1832 21.2 12.3832 21.6667 12.3832 22.2V26.6H7.38323V26.4C7.38323 26 7.2499 25.6667 6.98324 25.4L2.2499 20.6ZM13.9166 27.9333V30.3333H5.71657V27.9333H6.11657H13.7832H13.9166ZM29.5832 12C28.5166 12.4667 27.7832 13.5333 27.7832 14.7333V18.8L26.0499 20.5333C25.5832 21 24.9832 21.2667 24.3166 21.2667L23.8499 21.2L25.3166 19.7333L25.3832 19.6C25.7166 18.3333 25.4499 16.9333 25.2499 16.2C25.1832 15.9333 24.9832 15.6667 24.6499 15.6C24.3832 15.5333 24.0499 15.6 23.8499 15.8L19.7166 19.9333C19.1166 20.5333 18.7832 21.4 18.7832 22.2667V26.6667H17.2499V31.7333H28.1832V26.6667H26.4499V26.4L31.2499 21.6C31.7166 21.1333 31.9832 20.5333 31.9832 19.8667V11.6667H31.3166C30.6499 11.6667 30.1166 11.8 29.5832 12ZM26.7832 27.9333V30.3333H18.5832V27.9333H18.7832H26.4499H26.7832ZM30.5832 19.8C30.5832 20.1333 30.4499 20.4 30.2499 20.6L25.4499 25.4C25.1832 25.6667 25.0499 26 25.0499 26.4V26.6H20.0499V22.2C20.0499 21.6667 20.2499 21.2 20.6499 20.8L24.1166 17.3333C24.1832 17.8667 24.2499 18.4667 24.1166 19L22.1166 21C21.9166 21.2 21.8499 21.5333 21.9166 21.8C21.9832 22.0667 22.2499 22.2667 22.5166 22.3333L24.1166 22.6H24.2499C25.3166 22.6 26.2499 22.2 26.9832 21.4667L29.1166 19.3333V14.7333C29.1166 14.0667 29.5166 13.4667 30.1166 13.2667C30.2499 13.2 30.4499 13.1333 30.5832 13.1333V19.8ZM16.4499 4.73333C14.0499 4.6 12.0499 6.46666 11.9166 8.86666C11.8499 10 12.2499 11.1333 13.0499 12C13.8499 12.8667 14.9166 13.3333 16.0499 13.4C16.1166 13.4 16.1832 13.4 16.2499 13.4C18.5166 13.4 20.4499 11.6 20.5832 9.26666C20.7166 6.86666 18.8499 4.86666 16.4499 4.73333ZM16.1166 12.0667C15.3166 12 14.5832 11.6667 14.0499 11.0667C13.5166 10.4667 13.2499 9.73333 13.2499 8.93333C13.3166 7.33333 14.6499 6.06666 16.2499 6.06666C16.3166 6.06666 16.3832 6.06666 16.3832 6.06666C18.0499 6.13333 19.3166 7.53333 19.2499 9.2C19.1832 10.8667 17.7832 12.1333 16.1166 12.0667Z" fill="#194C81"/>
<path d="M24.9833 10.4667V7.53334L23.2499 7.13334C23.1166 6.53334 22.8499 6 22.5166 5.4L23.4499 3.86667L21.3166 1.8L19.7833 2.73334C19.2499 2.4 18.6499 2.2 18.0499 2.06667L17.6499 0.333336H14.7166L14.3166 2.06667C13.7166 2.2 13.1833 2.46667 12.5833 2.8L11.0499 1.86667L9.04993 4L9.98327 5.53334C9.64994 6.06667 9.44994 6.66667 9.24994 7.26667L7.5166 7.66667V10.6L9.24994 11C9.38327 11.6 9.64994 12.1333 9.98327 12.7333L9.04993 14.2667L11.1833 16.3333L12.7166 15.4C13.2499 15.7333 13.8499 15.9333 14.4499 16.0667L14.8499 17.8H17.7833L18.1833 16.0667C18.7833 15.9333 19.3166 15.6667 19.9166 15.3333L21.4499 16.2667L23.5166 14.1333L22.5833 12.6C22.9166 12.0667 23.1166 11.4667 23.2499 10.8667L24.9833 10.4667ZM22.1166 9.8L22.0499 10.2C21.9166 10.9333 21.6499 11.6 21.2499 12.2667L21.0499 12.6L21.8499 13.9333L21.2499 14.5333L19.9166 13.7333L19.5833 14C18.9833 14.4 18.2499 14.7333 17.5833 14.8667L17.1833 14.9333L16.8499 16.4667H15.9833L15.5833 14.9333L15.1833 14.8667C14.4499 14.7333 13.7833 14.4667 13.1166 14.0667L12.7833 13.8667L11.4499 14.6667L10.7833 14L11.5833 12.6667L11.3166 12.3333C10.9166 11.7333 10.5833 11 10.4499 10.3333L10.3833 9.93334L8.84993 9.6V8.73334L10.3833 8.33334L10.4499 7.93334C10.5833 7.2 10.8499 6.53334 11.2499 5.86667L11.4499 5.53334L10.6499 4.2L11.2499 3.6L12.5833 4.4L12.9166 4.13334C13.5166 3.73334 14.2499 3.4 14.9166 3.26667L15.3166 3.2L15.6499 1.66667H16.5166L16.9166 3.2L17.3166 3.26667C18.0499 3.4 18.7166 3.66667 19.3833 4.06667L19.7166 4.26667L21.0499 3.46667L21.6499 4.06667L20.8499 5.4L21.1166 5.73334C21.5166 6.33334 21.8499 7.06667 21.9833 7.73334L22.0499 8.13334L23.5833 8.46667V9.33334L22.1166 9.8Z" fill="#194C81"/>
</g>
<defs>
<clipPath id="clip0_232_7667">
<rect width="32" height="32" fill="white" transform="translate(0.25)"/>
</clipPath>
</defs>
</svg>
