<svg width="28" height="29" viewBox="0 0 28 29" fill="none" xmlns="http://www.w3.org/2000/svg">
<path d="M21.1925 24.5494L12.8844 10.4269C12.7297 10.1641 12.5091 9.94628 12.2443 9.79493C11.9796 9.64358 11.68 9.56396 11.375 9.56396C11.0701 9.56396 10.7704 9.64358 10.5057 9.79493C10.241 9.94628 10.0203 10.1641 9.86565 10.4269L1.55753 24.5494C1.40081 24.8153 1.31721 25.1179 1.31522 25.4266C1.31323 25.7352 1.39291 26.0389 1.54618 26.3068C1.69946 26.5746 1.92086 26.7972 2.18794 26.9519C2.45502 27.1066 2.75826 27.1879 3.0669 27.1875H19.6831C19.9918 27.1879 20.295 27.1066 20.5621 26.9519C20.8292 26.7972 21.0506 26.5746 21.2039 26.3068C21.3571 26.0389 21.4368 25.7352 21.4348 25.4266C21.4328 25.1179 21.3492 24.8153 21.1925 24.5494ZM11.375 25.4375C11.1154 25.4375 10.8617 25.3606 10.6458 25.2163C10.43 25.0721 10.2618 24.8671 10.1624 24.6273C10.0631 24.3875 10.0371 24.1236 10.0877 23.869C10.1384 23.6144 10.2634 23.3805 10.4469 23.197C10.6305 23.0134 10.8644 22.8884 11.119 22.8378C11.3736 22.7871 11.6375 22.8131 11.8773 22.9125C12.1171 23.0118 12.3221 23.18 12.4663 23.3959C12.6105 23.6117 12.6875 23.8655 12.6875 24.125C12.6878 24.2975 12.654 24.4682 12.5881 24.6276C12.5222 24.7869 12.4255 24.9317 12.3036 25.0536C12.1817 25.1756 12.0369 25.2722 11.8776 25.3381C11.7182 25.404 11.5474 25.4378 11.375 25.4375ZM13.0856 15.7557L11.9088 21.0713C11.8814 21.1924 11.8136 21.3006 11.7166 21.3781C11.6197 21.4556 11.4992 21.4978 11.375 21.4978C11.2509 21.4978 11.1304 21.4556 11.0334 21.3781C10.9364 21.3006 10.8687 21.1924 10.8413 21.0713L9.6644 15.7557C9.60774 15.4996 9.60927 15.2341 9.66889 14.9788C9.72851 14.7234 9.84469 14.4847 10.0089 14.2802C10.173 14.0757 10.381 13.9107 10.6175 13.7973C10.8539 13.684 11.1128 13.6251 11.375 13.6251C11.6373 13.6251 11.8961 13.684 12.1326 13.7973C12.369 13.9107 12.577 14.0757 12.7412 14.2802C12.9054 14.4847 13.0215 14.7234 13.0812 14.9788C13.1408 15.2341 13.1423 15.4996 13.0856 15.7557Z" fill="#FFBA17"/>
<path d="M23.625 5.3125C23.625 5.42853 23.5789 5.53981 23.4968 5.62186C23.4148 5.70391 23.3035 5.75 23.1875 5.75H21.4375C21.3214 5.75 21.2102 5.70391 21.1281 5.62186C21.0461 5.53981 21 5.42853 21 5.3125C21 5.19647 21.0461 5.08519 21.1281 5.00314C21.2102 4.92109 21.3214 4.875 21.4375 4.875H23.1875C23.3035 4.875 23.4148 4.92109 23.4968 5.00314C23.5789 5.08519 23.625 5.19647 23.625 5.3125ZM12.6879 5.75H19.6805C19.7965 5.75 19.9078 5.70391 19.9898 5.62186C20.0719 5.53981 20.118 5.42853 20.118 5.3125C20.118 5.19647 20.0719 5.08519 19.9898 5.00314C19.9078 4.92109 19.7965 4.875 19.6805 4.875H12.688C12.572 4.875 12.4607 4.92109 12.3787 5.00314C12.2966 5.08519 12.2505 5.19647 12.2505 5.3125C12.2505 5.42853 12.2966 5.53981 12.3787 5.62186C12.4607 5.70391 12.5719 5.75 12.6879 5.75ZM10.0629 5.75H10.9379C11.0539 5.75 11.1652 5.70391 11.2473 5.62186C11.3293 5.53981 11.3754 5.42853 11.3754 5.3125C11.3754 5.19647 11.3293 5.08519 11.2473 5.00314C11.1652 4.92109 11.0539 4.875 10.9379 4.875H10.0629C9.94688 4.875 9.8356 4.92109 9.75356 5.00314C9.67151 5.08519 9.62541 5.19647 9.62541 5.3125C9.62541 5.42853 9.67151 5.53981 9.75356 5.62186C9.8356 5.70391 9.94688 5.75 10.0629 5.75ZM23.1875 7.5H22.75C22.6339 7.5 22.5227 7.54609 22.4406 7.62814C22.3586 7.71019 22.3125 7.82147 22.3125 7.9375C22.3125 8.05353 22.3586 8.16481 22.4406 8.24686C22.5227 8.32891 22.6339 8.375 22.75 8.375H23.1875C23.3035 8.375 23.4148 8.32891 23.4968 8.24686C23.5789 8.16481 23.625 8.05353 23.625 7.9375C23.625 7.82147 23.5789 7.71019 23.4968 7.62814C23.4148 7.54609 23.3035 7.5 23.1875 7.5ZM18.375 12.75H17.5C17.3839 12.75 17.2727 12.7961 17.1906 12.8781C17.1086 12.9602 17.0625 13.0715 17.0625 13.1875C17.0625 13.3035 17.1086 13.4148 17.1906 13.4969C17.2727 13.5789 17.3839 13.625 17.5 13.625H18.375C18.491 13.625 18.6023 13.5789 18.6843 13.4969C18.7664 13.4148 18.8125 13.3035 18.8125 13.1875C18.8125 13.0715 18.7664 12.9602 18.6843 12.8781C18.6023 12.7961 18.491 12.75 18.375 12.75ZM17.9375 7.9375C17.9375 8.05353 17.9836 8.16481 18.0656 8.24686C18.1477 8.32891 18.2589 8.375 18.375 8.375H21C21.116 8.375 21.2273 8.32891 21.3093 8.24686C21.3914 8.16481 21.4375 8.05353 21.4375 7.9375C21.4375 7.82147 21.3914 7.71019 21.3093 7.62814C21.2273 7.54609 21.116 7.5 21 7.5H18.375C18.259 7.50009 18.1478 7.54623 18.0658 7.62826C17.9839 7.7103 17.9375 7.82153 17.9375 7.9375ZM17.0625 7.9375C17.0625 7.82147 17.0164 7.71019 16.9343 7.62814C16.8523 7.54609 16.741 7.5 16.625 7.5H10.0631C9.9471 7.5 9.83582 7.54609 9.75377 7.62814C9.67173 7.71019 9.62563 7.82147 9.62563 7.9375C9.62563 8.05353 9.67173 8.16481 9.75377 8.24686C9.83582 8.32891 9.9471 8.375 10.0631 8.375H16.6254C16.7414 8.375 16.8527 8.32891 16.9347 8.24686C17.0168 8.16481 17.0625 8.05353 17.0625 7.9375ZM23.1875 10.125H16.1879C16.0719 10.125 15.9606 10.1711 15.8786 10.2531C15.7965 10.3352 15.7504 10.4465 15.7504 10.5625C15.7504 10.6785 15.7965 10.7898 15.8786 10.8719C15.9606 10.9539 16.0719 11 16.1879 11H23.1875C23.3035 11 23.4148 10.9539 23.4968 10.8719C23.5789 10.7898 23.625 10.6785 23.625 10.5625C23.625 10.4465 23.5789 10.3352 23.4968 10.2531C23.4148 10.1711 23.3035 10.125 23.1875 10.125ZM23.1875 12.75H20.125C20.0089 12.75 19.8977 12.7961 19.8156 12.8781C19.7336 12.9602 19.6875 13.0715 19.6875 13.1875C19.6875 13.3035 19.7336 13.4148 19.8156 13.4969C19.8977 13.5789 20.0089 13.625 20.125 13.625H23.1875C23.3035 13.625 23.4148 13.5789 23.4968 13.4969C23.5789 13.4148 23.625 13.3035 23.625 13.1875C23.625 13.0715 23.5789 12.9602 23.4968 12.8781C23.4148 12.7961 23.3035 12.75 23.1875 12.75ZM27.125 3.5625V18.5009C27.1256 18.9047 27.0144 19.3007 26.8037 19.645C26.5929 19.9894 26.291 20.2687 25.9312 20.4519C25.5714 20.6351 25.168 20.7151 24.7655 20.683C24.3631 20.6509 23.9774 20.5079 23.6512 20.27L19.672 17.376C19.4479 17.2124 19.1775 17.1245 18.9 17.125H17.332L21.5706 24.3286C21.7659 24.6608 21.8701 25.0387 21.8724 25.4242C21.8748 25.8096 21.7753 26.1888 21.584 26.5233C21.3926 26.8579 21.1163 27.136 20.783 27.3295C20.4496 27.5229 20.0711 27.6249 19.6856 27.625H3.06554C2.68015 27.6249 2.30163 27.5229 1.9683 27.3295C1.63498 27.136 1.35867 26.858 1.16735 26.5234C0.976038 26.1889 0.876503 25.8097 0.878824 25.4243C0.881145 25.0389 0.98524 24.661 1.18057 24.3288L6.26432 15.6882C6.17399 15.4481 6.12708 15.194 6.12576 14.9375V3.5625C6.12644 2.98255 6.35712 2.42654 6.76721 2.01645C7.1773 1.60636 7.73331 1.37567 8.31326 1.375H24.9375C25.5174 1.37567 26.0734 1.60636 26.4835 2.01645C26.8936 2.42654 27.1243 2.98255 27.125 3.5625ZM20.8162 24.7725L12.506 10.649C12.3903 10.4521 12.2251 10.2888 12.0268 10.1753C11.8286 10.0619 11.6041 10.0022 11.3757 10.0022C11.1472 10.0021 10.9227 10.0618 10.7244 10.1752C10.5261 10.2886 10.3609 10.4519 10.2451 10.6488L1.93508 24.7725C1.81781 24.9718 1.75527 25.1985 1.75381 25.4297C1.75235 25.6609 1.81202 25.8884 1.92677 26.0891C2.04152 26.2899 2.20727 26.4567 2.40725 26.5728C2.60723 26.6888 2.83433 26.75 3.06554 26.75H19.6856C19.9168 26.7499 20.1439 26.6888 20.3439 26.5727C20.5439 26.4567 20.7096 26.2898 20.8244 26.0891C20.9392 25.8884 20.9988 25.6609 20.9974 25.4297C20.996 25.1985 20.9335 24.9718 20.8162 24.7725ZM26.25 3.5625C26.2496 3.21452 26.1112 2.8809 25.8651 2.63484C25.6191 2.38879 25.2855 2.25038 24.9375 2.25H8.31318C7.96519 2.25037 7.63157 2.38877 7.38551 2.63483C7.13945 2.88089 7.00105 3.21452 7.00068 3.5625V14.4369L9.49053 10.2051C9.68362 9.87681 9.95911 9.60463 10.2897 9.41552C10.6203 9.22642 10.9946 9.12694 11.3755 9.12694C11.7564 9.12694 12.1306 9.22642 12.4612 9.41552C12.7918 9.60463 13.0673 9.87681 13.2604 10.2051L16.8172 16.25H23.1875C23.3035 16.25 23.4148 16.2961 23.4968 16.3781C23.5789 16.4602 23.625 16.5715 23.625 16.6875C23.625 16.8035 23.5789 16.9148 23.4968 16.9969C23.4148 17.0789 23.3035 17.125 23.1875 17.125H20.814L24.1656 19.5624C24.3614 19.7048 24.5927 19.7903 24.8341 19.8094C25.0754 19.8284 25.3174 19.7804 25.5331 19.6705C25.7488 19.5606 25.93 19.3933 26.0565 19.1868C26.183 18.9804 26.25 18.743 26.25 18.5009V3.5625ZM13.1255 24.125C13.1255 24.4711 13.0229 24.8095 12.8306 25.0972C12.6383 25.385 12.365 25.6093 12.0452 25.7418C11.7254 25.8742 11.3736 25.9089 11.0341 25.8414C10.6946 25.7738 10.3828 25.6072 10.1381 25.3624C9.89332 25.1177 9.72665 24.8059 9.65913 24.4664C9.5916 24.1269 9.62626 23.7751 9.75871 23.4553C9.89117 23.1355 10.1155 22.8622 10.4033 22.6699C10.691 22.4776 11.0294 22.375 11.3755 22.375C11.8395 22.3755 12.2843 22.56 12.6124 22.8881C12.9405 23.2162 13.125 23.661 13.1255 24.125ZM12.2505 24.125C12.2505 23.9519 12.1992 23.7828 12.103 23.6389C12.0069 23.495 11.8702 23.3828 11.7104 23.3166C11.5505 23.2504 11.3745 23.2331 11.2048 23.2668C11.0351 23.3006 10.8792 23.3839 10.7568 23.5063C10.6344 23.6287 10.5511 23.7846 10.5173 23.9543C10.4836 24.124 10.5009 24.3 10.5671 24.4598C10.6333 24.6197 10.7455 24.7564 10.8894 24.8525C11.0333 24.9487 11.2024 25 11.3755 25C11.6075 24.9998 11.8299 24.9075 11.994 24.7435C12.158 24.5794 12.2502 24.357 12.2505 24.125ZM11.3755 13.1875C11.703 13.1875 12.0264 13.261 12.3217 13.4026C12.6171 13.5442 12.8768 13.7503 13.0819 14.0057C13.287 14.2611 13.4321 14.5593 13.5065 14.8782C13.581 15.1972 13.5829 15.5288 13.5121 15.8486L12.3352 21.1661C12.2867 21.3845 12.1653 21.5798 11.9908 21.7198C11.8163 21.8598 11.5993 21.9361 11.3757 21.9361C11.152 21.9361 10.935 21.8598 10.7605 21.7198C10.5861 21.5798 10.4646 21.3845 10.4161 21.1661L9.23923 15.8486C9.16846 15.5288 9.17036 15.1972 9.2448 14.8783C9.31925 14.5594 9.46434 14.2612 9.66937 14.0058C9.8744 13.7504 10.1341 13.5443 10.4294 13.4027C10.7248 13.2611 11.048 13.1875 11.3755 13.1875ZM12.3996 14.5536C12.214 14.3225 11.9557 14.1609 11.6667 14.0952C11.3776 14.0294 11.0748 14.0634 10.8076 14.1916C10.5403 14.3198 10.3242 14.5347 10.1946 14.8012C10.0649 15.0678 10.0292 15.3704 10.0934 15.6598L11.2702 20.9768C11.2756 21.0007 11.289 21.022 11.3081 21.0372C11.3272 21.0525 11.3509 21.0608 11.3753 21.0607C11.3998 21.0607 11.4235 21.0524 11.4425 21.0371C11.4616 21.0218 11.4749 21.0005 11.4802 20.9766L12.6571 15.6595C12.7002 15.4677 12.6994 15.2686 12.6548 15.0772C12.6102 14.8857 12.5229 14.7067 12.3996 14.5536Z" fill="#001833"/>
</svg>
