<svg width="16" height="18" viewBox="0 0 16 18" fill="none" xmlns="http://www.w3.org/2000/svg">
<path d="M3.5 18C5.4297 18 7 16.4746 7 14.6001C7 13.6211 6.0352 8 3.5 8C0.9648 8 0 13.6211 0 14.6001C0 16.4746 1.5703 18 3.5 18ZM3.5 10.0581C4.1279 10.6372 5 13.4023 5 14.6001C5 15.3721 4.3271 16 3.5 16C2.6729 16 2 15.3721 2 14.6001C2 13.4023 2.8721 10.6372 3.5 10.0581ZM12.5 16C14.4297 16 16 14.4746 16 12.6001C16 11.6211 15.0352 6 12.5 6C9.9648 6 9 11.6211 9 12.6001C9 14.4746 10.5703 16 12.5 16ZM12.5 8.0581C13.1279 8.6372 14 11.4023 14 12.6001C14 13.3721 13.3271 14 12.5 14C11.6729 14 11 13.3721 11 12.6001C11 11.4023 11.8721 8.6372 12.5 8.0581ZM7.5 8C9.0854 8 10.375 6.7441 10.375 5.2002C10.375 4.3179 9.5918 0 7.5 0C5.4082 0 4.625 4.3179 4.625 5.2002C4.625 6.7441 5.9146 8 7.5 8ZM7.5 2.2085C7.9087 2.8799 8.375 4.4849 8.375 5.2002C8.375 5.6411 7.9824 6 7.5 6C7.0176 6 6.625 5.6411 6.625 5.2002C6.625 4.4849 7.0913 2.8799 7.5 2.2085Z" fill="#194C81"/>
</svg>
